<svg id="Layer_1" data-name="Layer 1" xmlns="http://www.w3.org/2000/svg" viewBox="0 0 755.26 274.31"><title>initiate_outline</title><path d="M500.19,348.17c-.49-.19-1.11-.66-1.21-1.1-.45-2.07-2.41-1.7-3.69-2.33a8.94,8.94,0,0,0-2.87-.33,2.11,2.11,0,0,1-1.65-2.33,11.83,11.83,0,0,0-.54-3.09c0-.11-.42-.27-.58-.21-1.61.57-3.55,0-4.87.56-2.37,1-4.55.07-6.78.15-1.58.05-2.85-.16-3.82,1.6,1.75-.06,1.76,1.09,1.76,2.27,0,.57.05,1.14.07,1.72,0,1.23.72,1.27,1.74,1.07,1.57-.32,3.18-.47,4.78-.68a.49.49,0,0,1,.38.11,3.51,3.51,0,0,0,3.34,1.08c.14,0,.31.16.47.22.88.38,1.77.74,2.63,1.14.47.21,1.09.38,1.32.76a2,2,0,0,0,3,.74,10.75,10.75,0,0,0,1.15,1.19c.6.46,1.28,1.19,1.92,1.18a46.15,46.15,0,0,0,5.2-.58C501.95,349.78,501.58,348.73,500.19,348.17Zm-3.93,1c-1.7-1.77-1.66-1.81-3.42-1.06l-4.16-1.91c-.36-.17-.72-.32-1.07-.52s-.58-.5-.89-.55c-1.54-.24-3.13-.24-4.49-1.2a.69.69,0,0,0-.64.06c-1.25,1-2.59.06-3.88.17-.16,0-.56-.54-.5-.7.23-.6.51-1.53.94-1.63a16.39,16.39,0,0,1,3.4-.13,5.5,5.5,0,0,0,1.2,0c1.47-.36,2.88-.82,4.47-.31.46.15,1.22-.62,2.07-1.09a11.19,11.19,0,0,0,0,2.21c.22,1.05.35,2.34,1,3a4.83,4.83,0,0,0,3.12,1.21A4.45,4.45,0,0,1,498,350,5.58,5.58,0,0,1,496.26,349.17Z" transform="translate(-21.97 -84.54)"/><path d="M546.32,344.14a.89.89,0,0,0-.64-.41c-1.22,0-2.45,0-3.67,0-.21,0-.47.34-.6.58-.72,1.37-2,.92-3.11.9-.5,0-1-.74-1.47-1.21-.67-.68-1.18-1.88-1.93-2-1.59-.34-3.24-.88-5-.2a5.27,5.27,0,0,1-2.85.07,3.09,3.09,0,0,0-3.61,1.39,10.41,10.41,0,0,1-.64,1c-.46.59-1.15,1.08-.38,1.93.5.55.85,1.57,1.39,1.67,2.61.49,5.29,2,7.78-.11a10.13,10.13,0,0,0,1.18,1.29,8,8,0,0,0,4.3,1.58,21.62,21.62,0,0,0,4.38.24,39.17,39.17,0,0,0,5.17-1.35,10.74,10.74,0,0,1,.37-1.15C547.7,346.8,547,345.47,546.32,344.14Zm-2.46,4a6.66,6.66,0,0,1-2.67.92,13.14,13.14,0,0,1-3.11-.29,17.89,17.89,0,0,1-2.84-.6,20.42,20.42,0,0,1-2.43-1.14l.48-.91-.14-.36c-.75.18-1.52.31-2.25.56a9.14,9.14,0,0,1-5.84-.1c-.94-.29-1.17-.9-.27-1.48a7,7,0,0,1,2.29-.92c1.18-.25,2.39-.33,3.59-.46.77-.09,1.54-.18,2.32-.21s1.27.06,2,.1c0,.09.2.3.17.49-.23,2,1.58,2.38,2.59,3.39.18.18.74.06,1.09,0q2.34-.64,4.65-1.35c.83-.25,1.61.07,1.61.78C545.12,347.12,544.43,347.84,543.86,348.18Z" transform="translate(-21.97 -84.54)"/><path d="M585,344.88a17.07,17.07,0,0,0-3.38-1.4,3.26,3.26,0,0,0-1.59,0c-1,.21-2.07.53-3.1.8l-.18-.51c-.63.28-1.26.56-1.89.85a10.77,10.77,0,0,1-2.37,1.1c-.85.16-1.58.41-1.56,1.28a3.24,3.24,0,0,0,.79,1.94,20.31,20.31,0,0,0,2.76,2.4,2.83,2.83,0,0,0,1.47.61c.44,0,.89-.38,1.36-.52,1.27-.38,2.39-1,3.93-.67,1.05.22,2.37-.71,3.54-1.19.15-.06.18-.47.23-.72a14.55,14.55,0,0,0,.41-2.34C585.41,346,585.32,345.09,585,344.88Zm-4.57,3.65a3.63,3.63,0,0,0-1.3.13,14.69,14.69,0,0,1-3.48.88c-.77,0-1.53-.84-2.41-1.37,1.63-1.23,3-2.39,5-2.13a.77.77,0,0,0,.5-.14c1.74-1.28,3.45-1,5.21.13C583.16,348.55,582.74,348.82,580.4,348.54Z" transform="translate(-21.97 -84.54)"/><path d="M776.2,287.47c-.37-.13-.65-.53-1-.77a32.12,32.12,0,0,0-2.79-1.85c-1-.53-1.71.45-2.56.59a31.35,31.35,0,0,1-4.63.27c-1.33,0-2.67,0-4-.05a.75.75,0,0,0-.37.15c-1.28.81-2.61,1.54-3.81,2.45a9.41,9.41,0,0,0-3,4.77c-.57,1.66-1.3,3.08-.16,4.75.28.4.19,1,.31,1.57a3.13,3.13,0,0,0,.4,1.1c.69,1,.28,1.69-.51,2.73a26.21,26.21,0,0,0-1.31-2.35,11.16,11.16,0,0,0-1.92-2.29c-1.09-.89-2-.6-2.54.67a39.37,39.37,0,0,0-1.67,3.79c-.62,1.84-2,3.59-.84,5.71.23.42.67,1,.55,1.3-.46,1.4-.77,3.09-1.75,4a10.2,10.2,0,0,1-6.18,2.54c-2.19.19-4.38.52-5.84,2.42-1.17,1.52-2.48-.38-3.67.26-.17.09-.51-.09-.74-.19a.41.41,0,0,1-.15-.34,24.21,24.21,0,0,1,.48-3.84c.54-2-.11-3.43-1.83-4-1.49-.45-2.92-1.12-4.39-1.64-1.7-.6-2.63-2.52-4.6-2.64-.61,0-1.63.06-1.75-.22-.43-1-1.39-.83-2.06-1.24-.41-.25-1-.51-1.11-.88a47.15,47.15,0,0,1-1.19-5c-.26-1.45-.34-2.94-.53-4.41a1.28,1.28,0,0,0-.34-.71,27.25,27.25,0,0,0-3-2.76c-.84-.6-1.58-1.1-1.75-2.21a1.91,1.91,0,0,0-.7-1.1c-1.27-1-.94-2.52-1.41-3.77a7,7,0,0,1,0-2.53c0-1.28.06-2.56.17-3.83a5.16,5.16,0,0,1,.47-1.89,29.53,29.53,0,0,1,1.68-2.6c1.5.41,3,.74,4.47,1.24,2.18.76,4.6-.49,6.77,1.25,1.26,1,3.3-.45,5,.22.1,0,.29-.18.45-.25.76-.31,1.51-.66,2.29-.89,2.29-.67,4.48-.14,6.71.46a3.38,3.38,0,0,1,2.34,1.77,1.3,1.3,0,0,0,2.18.54c1-.72,2-1.44,3.09-2.07a2.05,2.05,0,0,1,1.13,0,15.49,15.49,0,0,0,2.23.27c1.18-.06,2.34-.31,3.52-.43,1.76-.18,3.53-.29,5.29-.48.33,0,.63-.31,1-.42,1.25-.41,2.48-.87,3.76-1.17,2-.46,4.13-.33,6-1.55,1.28-.85,2.67-1.64,2.59-3.37a6.85,6.85,0,0,0-.85-3.31,30.08,30.08,0,0,0-4-4.89c-.94-.94-1.18-1.61,0-2.33s2.82-1.33,1.4-3.23c0,0,0-.09,0-.13-.61-2,.08-4.68-2.71-5.67-.09,0-.13-.23-.17-.36a37.51,37.51,0,0,0-1.35-4.4c-.66-1.49-.85-3.23-2.82-4-2.62-1.09-2.85-2.77-1.25-5.27.19-.29.08-1.13-.13-1.25a5.38,5.38,0,0,0-2.19-.65,3.86,3.86,0,0,1-3.71-2.33,23.6,23.6,0,0,0-2.71-4.08,2.28,2.28,0,0,0-1.63-.75c-2,0-4,.28-6,.37a14.54,14.54,0,0,1-3.84-.1c-1.12-.26-2.09-.93-3.28-.18-.2.12-.72-.19-1.05-.37-1.51-.84-3-1.73-4.51-2.54a19.76,19.76,0,0,0-3.63-1.69c-1.29-.37-2.56-1.1-4.05,0a7.39,7.39,0,0,1-3.62,1,1.86,1.86,0,0,0-1.93,1.46,1.74,1.74,0,0,1-.4.8c-2.22,2-4.18,4.3-6.75,5.9a25.48,25.48,0,0,1-3,1.79c-1.75.79-2.39,1.6-2.37,3.44a3.66,3.66,0,0,1,0,1.2c-1,2.79-1.64,5.69-3.83,8a31.22,31.22,0,0,1-5.21,4.47c-.94.64-1,1.16-.6,2.08a3.4,3.4,0,0,1,.42,1.72c-.11.91-.54,1.78-.71,2.69s-.56,2-.22,2.8a23.61,23.61,0,0,0,2.63,3.8,9.61,9.61,0,0,0-.72,1.07,13.33,13.33,0,0,0-1.79,3.65,50.12,50.12,0,0,0-.34,6.4,12.77,12.77,0,0,1-.11,2.11,7.24,7.24,0,0,0,.46,5.45,4.19,4.19,0,0,1,0,4.76c-.81,1.12-.59,2.29-.5,3.47a5.84,5.84,0,0,0,.43,1.64c.12.32.37.77.63.82a1.49,1.49,0,0,0,1.13-.34c.56-.51,1-1.17,1.5-1.72.22-.23.62-.54.84-.48s.49.5.57.81a10.56,10.56,0,0,1-.55,5.8c-.37,1.23-1,2.49-.06,3.57,1.06,1.27.86,2.32.19,3.65-1.62,3.19-1,5.94,1.53,8.39,1,1,2,1.91,1.92,3.52,0,.36.41.87.77,1.1,1.16.74,2.37,1.42,3.6,2.05s2.08,0,2-1.39a4.55,4.55,0,0,1,.12-.82,3.2,3.2,0,0,1,.84.23c.54.35,1,1,1.56,1.09,2.24.46,2.66,1,2.62,3.29a2.17,2.17,0,0,0,.7,1.51c2.81,2.29,5.8,4.39,7.17,8a1.39,1.39,0,0,0,.67.62,13,13,0,0,0,2.75,1.22c2.15.49,4.33.84,6.52,1.14.42.06.91-.41,1.37-.62s.74-.44,1-.33c1.16.53,2.26,1.19,3.4,1.74a9,9,0,0,0,3.11,1.27,27.42,27.42,0,0,0,7.29-.15,9.32,9.32,0,0,0,5.27-3,54.42,54.42,0,0,0,3.23-4.57,1.45,1.45,0,0,1,.94-.6c1.29,0,2.58,0,3.88-.12a9.29,9.29,0,0,0,4.1-1.5c2.13-1.31,4.33-2.8,5.56-5.23.42-.83,1.06-1.94,1.81-2.15,1.49-.42,1.69-1.45,2-2.59.08-.28.35-.5.51-.76.68-1.06,2.72-1.29,2-3.23,0-.06.19-.19.23-.31a7.49,7.49,0,0,0,.51-1.72,18,18,0,0,1,0-2.81c.34-1.38.08-3.1,1.87-3.85a3.52,3.52,0,0,0,1.64-1.23,22.65,22.65,0,0,0,1.4-3.26c.92-2.31.82-2.59-1.21-4-.21-.15-.41-.31-.52-.4.8-1.52,1.61-2.93,2.3-4.4A1.24,1.24,0,0,0,776.2,287.47Zm-.92,8.67c-.16,1-.31,2-.48,3a1,1,0,0,1-.24.59c-1.35,1.06-2.69,2.14-4.09,3.11a2.61,2.61,0,0,0-.66,3.58c.83,1.33.43,2.6.24,3.83a3.76,3.76,0,0,1-1.69,2.55c-.87.6-1.17,2-1.87,2.88a22.67,22.67,0,0,1-2.21,2.2,9.55,9.55,0,0,0-1.42,1.42c-2.23,3.4-5.79,4.7-9.37,5.91a18.66,18.66,0,0,1-3,.21,2.36,2.36,0,0,0-1.16.79c-.62.66-1.18,1.39-1.75,2.1a16,16,0,0,1-1.21,1.56,15.78,15.78,0,0,1-3.4,3c-1,.52-2.44.3-3.68.39s-2.49-.22-3.76.42c-.58.3-1.68-.1-2.4-.47-1.52-.79-3-1.74-4.4-2.67a1.59,1.59,0,0,0-2.27.1,2.26,2.26,0,0,1-1.46.41,16.58,16.58,0,0,1-3.45-.26c-1.81-.41-3.63-.74-4.85-2.54a19.37,19.37,0,0,0-6.06-6.3,3.35,3.35,0,0,1-1.18-2.54c0-1.93-.65-2.93-2.65-3a10.62,10.62,0,0,1-2.2-.61c0-.2,0-.46,0-.72.11-1.29-.19-1.52-1.35-1.06a1.71,1.71,0,0,1-1,.13c-1.44-.43-2.44-.24-2.35,1.75a4.33,4.33,0,0,1-2.55-2.2,15.66,15.66,0,0,0-2-3.48,4.88,4.88,0,0,1-1.19-5.76,10.25,10.25,0,0,0,.79-2.91A2.45,2.45,0,0,0,694,299c-.69-.49-.92-1.09,0-1.68a1.27,1.27,0,0,0,.57-.86c0-2.53,1.19-5,0-7.61-.56-1.24-1.64-1.47-2.64-1.75-.36-.1-1,.7-1.45,1.07-.25.19-.54.33-.81.49a5.87,5.87,0,0,1-.1-.94,1,1,0,0,1,.23-.62c2-2.15.64-4.36.18-6.57a12.45,12.45,0,0,1-.23-2.86c0-1.65.17-3.29.32-4.93.2-2.21.1-4.54.79-6.59.45-1.32,2.08-2.24,3.2-3.33.25-.24.79-.45.78-.64a1.29,1.29,0,0,0-.63-.89c-1.09-.56-2.22-1-3.35-1.52-1.67-.71-1.71-1.46-.88-3a8.9,8.9,0,0,0,1-4.17,2.32,2.32,0,0,1,.9-2c1.35-1.24,2.62-2.57,3.94-3.85.44-.43.93-.8,1.36-1.23a2.65,2.65,0,0,0,.6-.8c.65-1.52,1.32-3,1.86-4.6a18,18,0,0,0,.52-2.66l1.91-1.1c-.26-.3-.31-.39-.38-.43l-1.26-.59a9.79,9.79,0,0,1,1-1.1c.92-.73,1.9-1.38,2.82-2.11,2-1.59,4-3.15,5.95-4.85.94-.85,1.45-2.23,2.46-2.93s2.42-.67,3.55-1.18c1.34-.61,2.42-.89,3.81.11,1,.74,2.5.83,3.74,1.32.81.32,1.53.87,2.34,1.22a26.89,26.89,0,0,0,3.53,1.36,17.8,17.8,0,0,0,4.79,1,40.61,40.61,0,0,0,6.74-.85c.66-.12,1-.19,1.46.41a44.22,44.22,0,0,0,3.63,4.77,9.69,9.69,0,0,0,3.12,1.91c.78.35,1.05.59.88,1.55a13.3,13.3,0,0,0,0,3.87,1.7,1.7,0,0,0,1.18,1.13c2.59.15,4,1.81,4.47,4.28a34.19,34.19,0,0,0,1.44,4.57.71.71,0,0,0,.3.42c2.55,1,2,3.45,2.48,5.39,0,.12-.12.33-.24.44-.89.82-1.82,1.6-2.7,2.45a1.29,1.29,0,0,0,.09,2.16,2.19,2.19,0,0,0,.55.38c2.22.89,3.15,3,4.52,4.72a3.1,3.1,0,0,1-.63,4.21,4.79,4.79,0,0,1-3.85,1.39c-1.22-.14-2.53.61-3.82.89-2.11.46-4.23,1-6.37,1.23a58.78,58.78,0,0,1-6.44.27,5.88,5.88,0,0,0-4.08,1.36c-.36.32-.76.61-1.21,1-1.55-2.51-4.3-2.27-6.58-3.06s-4.39.22-6.57.9a16.21,16.21,0,0,1-4.75.28,1.44,1.44,0,0,1-1.07-.69,1.08,1.08,0,0,0-1.65-.56c-2.42,1.19-4.74.39-7-.42-1.63-.59-3-.63-4.16.73-1.26,1.53-2.63,3.07-1.94,5.47a9.8,9.8,0,0,1-.1,3.94,6.66,6.66,0,0,0,1.93,5.92,4.62,4.62,0,0,1,.83,1.89,5.44,5.44,0,0,0,1.72,2.42,7.76,7.76,0,0,1,2.27,3.16c.72,2.08.59,4.25,1.3,6.25a38.14,38.14,0,0,0,1.84,4,1.12,1.12,0,0,0,.55.55c1.82.61,3.66,1.14,5.46,1.8a10.38,10.38,0,0,1,1.78,1.11q.84.52,1.69,1c.11.06.33,0,.38.11,1,1.56,2.83,1.13,4.18,1.83a1.24,1.24,0,0,1,.64.87c-.06,1.47-.25,2.93-.35,4.39-.14,2.13.33,2.78,2.17,2.84.68,0,1.35.53,2,.51,1.09,0,2.46,0,3.2-.57,2-1.62,4-2.62,6.65-2.18a1,1,0,0,0,.66,0c1.94-1.23,4.12-2.22,5.7-3.81,1-1,1.23-2.92,1.62-4.48a2.29,2.29,0,0,0-.44-1.89c-1-.94-.56-1.91-.26-2.81a36.21,36.21,0,0,1,1.68-4.06c.55-1.16,1.22-1.15,2-.11,1.11,1.57,2.16,3.11,2,5.19-.05.85.61,1,1.2.75a10.57,10.57,0,0,1,1.06-2.6c1.56-2,1.15-4.07.58-6.22a6.66,6.66,0,0,1,.11-4.94c.54-1.11.18-2.63,1.5-3.42a28.86,28.86,0,0,1,4.14-2.37c.87-.34,2,0,3,0,2.11-.06,4.22-.15,6.34-.23l.53,0c.63,0,1.59-.3,1.83,0a8.28,8.28,0,0,1,1.14,2.56.92.92,0,0,1-.33.79A4.93,4.93,0,0,0,772.3,294c-.08.36-.44.65-.87,1.26.68.12,1.28.44,1.67.26C774.08,295.08,774.66,295.52,775.28,296.15Z" transform="translate(-21.97 -84.54)"/><path d="M705.51,258.54c.06.23.26.57.44.59a55,55,0,0,0,6.31.78,3.57,3.57,0,0,1,2.76.81,2.3,2.3,0,0,0,1.52.62,11.57,11.57,0,0,0,5.53-1.78,2,2,0,0,1,1.32-.18c1.38.26,2.72.65,4.1.91s2.85.28,4.19.68a2.5,2.5,0,0,0,2.81-1.11c.56-.89,1-.92,1.67-.58a9.54,9.54,0,0,0,6.54.8c.24,0,.52.24.79.31.47.12,1.12.41,1.38.21a1.78,1.78,0,0,0,.7-1.43,7.64,7.64,0,0,0-1.13-2.48c-1.62-2.41-3.91-4.35-5-7.12a11.68,11.68,0,0,1-.39-1.77c-.24-1.09-.18-2.43-.82-3.2s-2-1.1-3.06-1.67a19.69,19.69,0,0,1-1.77-1.21c-1-.7-1.89-1.8-3-2-1.55-.3-3.23.16-4.85.1-1.92-.07-3.86.64-5.77-.23a30.07,30.07,0,0,0-3.18-1.06l-.09.27-.67-.06c-2-.13-2.24.08-2.66,2.07a1.68,1.68,0,0,1-.36.85,37.47,37.47,0,0,1-3.46,3.08c-1,.74-1.22,1.57-.56,2.49s.28,1.49-.44,2.12a27.93,27.93,0,0,0-2.85,2.75,3.14,3.14,0,0,0-.89,3.17C705,256.34,705.21,257.46,705.51,258.54Zm.78-4.56a19.58,19.58,0,0,1,2.06-1.58c.7-.54,1.41-1.07,2.07-1.65a8.47,8.47,0,0,0,1.34-1.43c.44-.62.78-1.36-.06-1.94s-.51-1.29,0-1.79c.77-.81,1.72-1.46,2.52-2.26a2.93,2.93,0,0,0,.84-1.45c.16-1,.66-1.16,1.5-1a29.42,29.42,0,0,0,4.59.88c2.08.1,4.17-.16,6.26-.21.88,0,1.76.12,2.64.15,1.06,0,1.18.93,1.7,1.55s1.78,1,2.7,1.47A7.09,7.09,0,0,1,736.7,246a5.24,5.24,0,0,1,.58,2.3,14.39,14.39,0,0,0,4.85,8.29,11.11,11.11,0,0,1,1.22,1.68c-2.27-.23-4.24.92-6.19-.6a5.42,5.42,0,0,0-2.59-.59,1.2,1.2,0,0,0-1.41,1.25c-.1,1.19-.68,1.3-1.64.8a3.44,3.44,0,0,0-1.63-.51c-2.29.12-4.32-.81-6.46-1.35a2.7,2.7,0,0,0-1.52.22c-1.11.44-2.18,1-3.28,1.47a2.94,2.94,0,0,1-3.57-.52,3.08,3.08,0,0,0-1.8-.7c-2-.18-4-.25-5.85-.35a22.5,22.5,0,0,1-1.08-2.16C706.18,254.82,706.09,254.19,706.29,254Z" transform="translate(-21.97 -84.54)"/><path d="M615.08,311.48c-.7-.24-1.51-.2-1.68-1.22a1.23,1.23,0,0,0-.74-.86c-1.83-.26-3.69-1.59-5.52.08-.25.23-.76.15-1.16.22s-.9,0-1.16.22c-1.34,1.16-3,1.16-4.6,1.51-.8.18-2.2-1-2.05-1.64a39.61,39.61,0,0,1,1.18-4.91c.69-1.92.92-4.25,3.46-4.89-.18-.58-.32-1.09-.49-1.59a35.65,35.65,0,0,0-1.49-4.16c-.35-.71-.82-1.19-.65-2.14.29-1.58-.55-2.17-2.15-1.78-.36.09-.74.11-1.06.16-.27-3.13-.55-6.1-.77-9.08-.19-2.62-.31-5.25-.47-7.87-.11-1.76-.61-3.43-.24-5.29a67,67,0,0,0,.84-8.49,19.45,19.45,0,0,0-.23-2.94l-1.6.48a32.6,32.6,0,0,0,2.22-3.87,35.15,35.15,0,0,0,1.32-4.67,1,1,0,0,0-.31-.84c-1.18-.83-1.16-1.67-.15-2.61a1.15,1.15,0,0,0,.33-.58c.47-2.4,2.11-3.92,3.9-5.38.35-.29.37-1,.49-1.56a7.32,7.32,0,0,1,.44-2.23c.44-.71,1.34-1.13,1.88-1.8a6.85,6.85,0,0,0,.76-1.74c-.52-.15-1.08-.52-1.55-.42-1.24.25-2.43.7-3.64,1.07l0-.25a10.2,10.2,0,0,0-1.95-.36,5.43,5.43,0,0,1-3.19-.74,3.54,3.54,0,0,0-2.47-.68,1.65,1.65,0,0,1-2.09-.6c-.79-1.62-2.06-2-3.69-2.11-1.17-.06-2.32-.52-3.5-.6-1.49-.11-3,.06-4.49,0a3.47,3.47,0,0,0-3.12,1.11,5.24,5.24,0,0,1-2.16,1.4,9.31,9.31,0,0,1-7.36-.15c-.55-.28-1.35-.33-1.66-.76-.84-1.14-1.72-.78-2.54-.22-1.08.73-2.05,1.62-3.16,2.52a2.71,2.71,0,0,0-3-1.5c-.91.19-1.86.17-2.77.32s-1.93.43-2.16,1.66c0,.26-.32.65-.53.67-.86.09-.8.62-.78,1.25a4.11,4.11,0,0,1-2.85,4c-1.91.8-3.71,1.88-5.58,2.77a5,5,0,0,1-1.82.46c-1.64.09-3.47-.48-4.46,1.53a25.12,25.12,0,0,1-1.44,2.49c-.36.55-.86,1-1.21,1.56a18.39,18.39,0,0,1-2.06,3.3,54.51,54.51,0,0,1-4.79,3.88c-.7.55-1.44,1.06-2.14,1.61-.5.39-.81.79-.22,1.44a1.37,1.37,0,0,1,.16,1.22,19.46,19.46,0,0,1-2.1,3.93,18.84,18.84,0,0,0-3.94,9.07,6.73,6.73,0,0,0,0,1.59,10.39,10.39,0,0,1-1.58,6.87,4,4,0,0,0,0,4.51,4.79,4.79,0,0,1,.79,3.69,26,26,0,0,0-.3,4.22c.06,2.35.36,4.69.42,7a25,25,0,0,1-.36,3.85c-.18,1.34.58,1.26,1.48,1.05l1.86-.43c-.51,2.35-1,4.38-1.39,6.41-.65,3.07,0,6,3.71,6.65,2.3.43,4.57,1.4,6.89,0a.82.82,0,0,1,.75,0c1.28,1,2.52,2.13,3.87,3.28L532,320c-.38,1-1.1,1.94-.91,2.61.44,1.51.81,3.13,2.54,4,2.2,1.1,4.68,1.75,6.43,3.66a.48.48,0,0,0,.36.15c2.46-.41,3.31,1.77,4.57,3,1.59,1.61,1.48,1.82,3.28.51a10.91,10.91,0,0,0,1.21-1.18c.81-.81,1.5-1.78,2.82-1.84.28,0,.74-.19.8-.38.36-1.28,1.5-1.14,2.41-1.46a27,27,0,0,0,3.62-1.51c1-.52,1.8-1.32,2.74-1.9a11.48,11.48,0,0,1,2.83-1.39c.66-.18,1.64-.94,2.15,0-.76.67-1.37,1.23-2,1.76a3.43,3.43,0,0,1-.67.43c-2.39,1.23-2.57,1.8-1.27,4a5.46,5.46,0,0,0,7.06,2.07c3.21-1.83,6.37-3.75,9.55-5.62a15.48,15.48,0,0,0,2.4-1.38c1.57-1.36,2.14-1.31,3.1.57.16.3.12.71.26,1a4.22,4.22,0,0,0,.69,1c.44.49.92.94,1.4,1.39.27.26.54.61.87.7.17,0,.55-.33.71-.59,1-1.72,1.51-2,3.55-1.64,2.3.41,4.76.22,6.78,1.73a1.31,1.31,0,0,0,.89.25c1.69-.29,3.36-.66,5.06-.94a14.73,14.73,0,0,0,3.2-.4,22.11,22.11,0,0,0,3.92-2.37,3,3,0,0,0,1-1.36,23.9,23.9,0,0,0,.68-2.56c-1.26-.16-1.26-1.05-1.07-2.06a4.85,4.85,0,0,0,0-.94,4.4,4.4,0,0,1,1.61-3.73c1-.83,1.94-1.78,3.27-3C616.65,312.17,615.89,311.76,615.08,311.48Zm-3.28,4.77a7.25,7.25,0,0,0-.14,6.52c.53,1.22-.39,2.07-1.2,2.69-1.07.82-2.16,1.67-3.79,1.15-.56-.18-1.4.61-2.14.83a17.13,17.13,0,0,1-2.5.47,6,6,0,0,1-1.45,0,15.07,15.07,0,0,1-1.71-.33c-.47-.11-.92-.28-1.39-.37-1.36-.24-2.72-.42-4.08-.69-1.52-.3-2.95-.49-4.25.7a1.43,1.43,0,0,1-2.34-.74,12.78,12.78,0,0,0-1-1.68,6.32,6.32,0,0,1-.84-1.65,2,2,0,0,0-2.46-1.81,10.36,10.36,0,0,1-4.16,4.49c-2.65,1.64-5.38,3.17-8.13,4.64a11.82,11.82,0,0,1-3.05,1c-.88.19-3.09-1.4-3.14-2.24a1.63,1.63,0,0,1,.5-1,34,34,0,0,0,2.79-2.89,22.46,22.46,0,0,0,2-3.68c.11-.23-.1-.9-.24-.92a2.36,2.36,0,0,0-1.38.12q-2.33,1.12-4.6,2.39c-1.56.87-3.12,1.76-4.59,2.76a16.31,16.31,0,0,1-5.16,2.35c-.13,0-.34,0-.38.09-1.05,1.92-3.45,1.82-4.85,3.27-1.23,1.27-2.14,1.07-3.13-.43a9.46,9.46,0,0,0-1.06-1.52,4.1,4.1,0,0,0-1.3-.74c-.86-.37-1.75-.66-2.6-1-1.46-.66-2.87-1.46-4.37-2s-1.7-2.31-2.8-3.23A7.51,7.51,0,0,1,534,321.4c.23-.16.7,0,1.27.09-.68-1.68-1.18-3.1-2.63-4a8.25,8.25,0,0,1-1.64-1.74c-1.17-1.36-1.75-1.39-3.38-.72a6.71,6.71,0,0,1-2.73.28c-1.49-.06-3-.26-4.64-.42a11.9,11.9,0,0,1-1-2.3,5.52,5.52,0,0,1,.12-2.25c.24-1.22.64-2.4.9-3.61.21-1,1.28-1.88.57-3.11-.1-.16.42-.64.56-1s.4-.93.24-1.21a1.57,1.57,0,0,0-1.14-.5,5,5,0,0,0-1.44.25c-1,.23-1.85-.57-1.34-1.38,1.09-1.72.16-3.41.21-5.1.07-2.28.27-4.57.15-6.84a13.34,13.34,0,0,0-1-4.84,3,3,0,0,1-.13-2.31,15.73,15.73,0,0,1,1.46-3.52c1.19-2.06.51-4.33.92-6.47a22.21,22.21,0,0,1,4-9,13.44,13.44,0,0,0,2-3.71,11.65,11.65,0,0,1,3.41-4.77,53.55,53.55,0,0,0,4.48-5.82c1.16-1.51,2.36-3,3.6-4.45a1.54,1.54,0,0,1,1.1-.33,12.05,12.05,0,0,0,5.46-1.3c1.68-.76,3.34-1.55,5-2.32,0,0,.1,0,.11-.07.7-1.91,3.63-2.4,3.22-5.15-.06-.43,1.3-1.15,2.08-1.61a3.11,3.11,0,0,1,1.55-.31,3.81,3.81,0,0,1,1.93.32c1.64,1.07,2.75.94,4.06-.84a4.42,4.42,0,0,1,.81-1c.24-.17.91-.19,1-.07.68,1.29,2,1.07,3.05,1.35a12.23,12.23,0,0,1,1.55.62c.36.15.74.44,1.08.41a21.23,21.23,0,0,0,4.09-.63,22.12,22.12,0,0,0,3.23-1.65,7.11,7.11,0,0,1,2-.82,22.44,22.44,0,0,1,4.35-.39c1.9.07,3.8.41,5.69.65a.63.63,0,0,1,.42.31c.89,2,2.75,2,4.5,2.26.69.1,1.39,0,1.65,1,.07.26,1.15.51,1.65.37,1.48-.4,2.58.45,3.8.91a.93.93,0,0,1,.53.68c-.11,1.35,0,2.7-1.35,3.75a8.92,8.92,0,0,0-2.17,2.91c-.72,1.41-1.16,3-1.78,4.43-.39.93-.43,1.68.53,2.33a1.44,1.44,0,0,1,.44,1.12,9.33,9.33,0,0,1-1.89,5.2c-1.2,1.57-1.16,2.57,0,4.11a1,1,0,0,1,.25.6,76.29,76.29,0,0,1-.73,7.8c-.49,2.64.21,5.14.38,7.7.1,1.49-.09,3-.07,4.51,0,1.11.15,2.22.26,3.33.21,2.08.51,4.15.64,6.23,0,.77-.39,1.56-.41,2.35a6,6,0,0,0,.47,1.71c.48-.14,1-.27,1.44-.44s.78-.35,1-.46c.71,1.08,1.32,2,1.91,2.91a3,3,0,0,1,.11,3.46,20.88,20.88,0,0,0-2.67,9.24,3.51,3.51,0,0,1-.47,1.37c-.72,1.33-.26,2.18.9,3.06a4,4,0,0,0,3.56.92,14.1,14.1,0,0,0,3.28-.88c2-1,4-2.14,6.4-1.76.28,0,.65.06.82.23.74.76,1.41,1.57,2.27,2.54A20.79,20.79,0,0,0,611.8,316.25Z" transform="translate(-21.97 -84.54)"/><path d="M582.43,246.69c-1.52-.08-3-1.07-4.54-.38-.14.06-.34-.07-.52-.08a36.28,36.28,0,0,0-4.24-.11,2.12,2.12,0,0,0-1.54,1.06c-.5,1.3-1.6,1.79-2.65,2.39-2.18,1.23-4.55.14-6.81.48a11.49,11.49,0,0,1-2.13-.33c-1.82-.11-3.64-.92-5.47.13-1,.57-2.1,1-3.38,1.54a11.38,11.38,0,0,1,.1-1.41c.26-1.2.49-2.4.85-3.57s0-2.48,1.32-3.21a1,1,0,0,0,.11-.88c-.31-.18-.85-.35-1.08-.2-.58.38-1.32.86-1.52,1.46-1,2.88-2.77,5.49-2.75,8.68a.9.9,0,0,1-.14.5c-1.49,2.07-1.24,4.66-2.09,6.92-.31.82-.63,2-1.28,2.27-1.85.9-3.88,1.43-5.82,2.15a2.48,2.48,0,0,0-.89.74,15.27,15.27,0,0,0-1,1.38c-.19.28-.48.59-.48.89a8.57,8.57,0,0,1-2.8,6.45c-1.52,1.46-1.71,2.2-.76,4a2.93,2.93,0,0,1,.23.77c.2,1,.41,2,.59,3,.47,2.59.34,2.86-1.67,3.91-.06,0-.08.15-.2.42,2.15.66,1.39,2.15,1.24,3.76a82.36,82.36,0,0,0-.13,9.75,5.06,5.06,0,0,0,2.89,4.57,1.46,1.46,0,0,1,.88,1.43,10.93,10.93,0,0,0,1,3.85,35.55,35.55,0,0,0,3.45,5.67c1.31,1.72,2.37,4.08,5.3,3.42a1.4,1.4,0,0,1,.88.24c1.29.75,2.31.74,3.08-.48,1.26-2,3.57-2.4,5.2-3.8a14.84,14.84,0,0,1,2.1-1.25c.34,3,2.59,3.38,4.68,3.16,3.52-.38,7-1.19,10.48-1.82,0,0,.07-.06.11-.08a23.66,23.66,0,0,1,3.34-1.2,4.6,4.6,0,0,0,3.55-3.82c.18-2.71.39-5.42.56-8.13a11.31,11.31,0,0,0-.11-1.32c-.07-1.26-.19-2.52-.18-3.78,0-1,.26-1.95.3-2.92a2.85,2.85,0,0,0-1.17-2.68,2,2,0,0,1-.67-1.53,30.26,30.26,0,0,1,1.46-5.45c.63-2.24.09-4.53.89-6.68a1.56,1.56,0,0,0-.33-1.42,11.31,11.31,0,0,0-2.68-1.41,2.88,2.88,0,0,1-1.87-2.9c.11-.83.11-1.68.24-2.5a22.06,22.06,0,0,1,.55-2.44c.43-1.57.82-3.15,1.39-4.67a18.58,18.58,0,0,1,1.49-2.58c.34-.59.93-1.21.9-1.79a22.27,22.27,0,0,0-.74-4c-.23-.91.14-1.62.93-1.54,1.49.15,2.07-1,3-1.54a9.14,9.14,0,0,0-.36-2C583.24,247.31,582.79,246.7,582.43,246.69Zm-2.65,2.85a2.67,2.67,0,0,0-1.6,3.27c.3,1.07.69,2.11.94,3.18.08.35,0,1-.2,1.13-2.44,1.36-2.3,3.92-3,6.11a18.66,18.66,0,0,1-.78,2.2c-.9,2-.55,4.12-.63,6.19,0,.27.25.56.42.82s.49.39.51.6c.18,2.61,2.61,2.43,4.06,3.32-.38,2.55-.71,5.07-1.16,7.57a18.16,18.16,0,0,1-1,3.56c-.81,2-.72,2.43.75,4.07,1,1.15.67,2.66.7,4.06s.14,2.69.15,4c0,1-.12,2-.15,3,0,1.47-.47,2.87-.08,4.42s-1.24,3.4-2.82,3.84c-2.26.62-4.46,1.43-6.74,2a65,65,0,0,1-7.07,1.34c-1.71.22-2.39-.61-2.62-2.23a2.74,2.74,0,0,0-1.21-1.54c-.25-.17-.91.14-1.31.36-1.13.61-2.22,1.28-3.32,1.92-.23.13-.59.22-.66.42-.65,1.67-2.31,2.26-3.5,3.33a1.93,1.93,0,0,1-1.28.43,13.28,13.28,0,0,1-2.71-.45,2.64,2.64,0,0,1-1.51-.85c-1-1.7-1.89-3.49-2.83-5.24a2.46,2.46,0,0,0-.59-.68,6.2,6.2,0,0,1-2.08-4c-.21-1.48.89-.66,1.53-.6l.13-.34a11.47,11.47,0,0,0-2.78-2,3.62,3.62,0,0,1-2.48-3.44,65.79,65.79,0,0,1-.07-6.81c0-2,0-4,.06-6,0-.38.32-1,.61-1.08,1.66-.49,1.15-1.76,1.06-2.82s-.34-2.14-.48-3.21a14.43,14.43,0,0,1-.26-3,7.15,7.15,0,0,1,1-2.07l-1.48-.58a9.8,9.8,0,0,0,1.13-1.5c.91-1.87,1.82-3.75,2.6-5.69a2.06,2.06,0,0,1,1.67-1.47,24.59,24.59,0,0,0,3-1.1,13.19,13.19,0,0,1,2.23-.73c.79-.13,1.11-.36,1.18-1.25A31,31,0,0,1,549.48,252c.19.31.26.44.36.56,1.27,1.6,1.82,1.66,3.34.36a7.7,7.7,0,0,1,6.09-1.64c2.11.22,4.21.6,6.32.75a4.65,4.65,0,0,0,2.22-.57c1.38-.67,2.7-1.46,4-2.21a2,2,0,0,0,.56-.34c1.54-1.75,2.59-1.93,4.79-1a3.8,3.8,0,0,0,1.64,0c.24,0,.55-.28.7-.19.59.34,1.12.76,1.67,1.16A13.6,13.6,0,0,1,579.77,249.54Z" transform="translate(-21.97 -84.54)"/><path d="M509.36,323.1a4.31,4.31,0,0,0-4.6-1.28,10.23,10.23,0,0,1-1.13.26,5.34,5.34,0,0,0-.93-1l.05,0a9.17,9.17,0,0,1-1-1.26c-.78-1.46-1.53-2.95-2.26-4.44a2.12,2.12,0,0,1-.24-.88c0-1.88-.06-3.76,0-5.63a21.76,21.76,0,0,1,.34-4.52c.48-2,.51-4.11,1.53-6a1.07,1.07,0,0,0,.07-.66c-.36-1.91-.75-3.82-1.09-5.74a6.44,6.44,0,0,1-.1-1.93c.18-1.33,1.17-2.43.86-4-.25-1.22.24-2.6-.05-3.81a26.78,26.78,0,0,0-1.85-4.48c-.06-.14-.39-.17-.61-.22a2,2,0,0,1-1.83-2.36c0-.43-.32-.89-.49-1.34a5.57,5.57,0,0,1-.64-1.72,6.29,6.29,0,0,0-1.08-3.9,1.73,1.73,0,0,1-.12-1q.07-1.3.22-2.6a4.25,4.25,0,0,1,.34-1.81c.78-1.15.49-1.93-.48-2.76a3.45,3.45,0,0,1-1.19-1.69c-.27-1.34-.14-2.76-.42-4.09-.36-1.67-1.07-3.27-.35-5,.09-.2-.07-.51-.12-.77-.25-1.33-.52-2.66-.72-4a1.33,1.33,0,0,1,.33-.85c1.31-1.72,1.23-2.55.16-4.43-.86-1.51-1.38-3.21-2.11-4.79-.18-.38-.56-.92-.88-.95a6,6,0,0,1-3.78-2,1.84,1.84,0,0,0-.57-.32l-3.24-1.33a9,9,0,0,1-2.24-1c-2.15-1.72-4.2-3.53-5.14-6.29a9.77,9.77,0,0,0-1.66-2.54,1.21,1.21,0,0,0-.92-.28c-.11,0-.3.5-.27.74a3.48,3.48,0,0,1-1.89,3.38c.1.75.22,1.39.26,2,.08,1.32-.24,2.81.27,3.94a11.65,11.65,0,0,1,.86,6.63,8.52,8.52,0,0,0,.21,2.52c0,.22.37.48.62.57,1.42.51,1.42.75.46,2a27.57,27.57,0,0,0-3.58,5.12,5.54,5.54,0,0,0,.06,3.82c.47,1.33,1.66,2.39,2.34,3.67.88,1.66,1.55,3.43.49,5.32a.9.9,0,0,0-.07.74c.67,1.09,1.4,2.15,2.11,3.21a6.63,6.63,0,0,1,.87,1.27c.48,1.32.86,2.67,1.33,4.18l2.37-.84a10.1,10.1,0,0,1-1.07,6.79c-1.48,2.74-4,5-4.16,8.34,0,.22-.35.4-.48.63-.49.85-.77,1.57.17,2.47a4.7,4.7,0,0,1,1.3,2.55c.31,2.14.26,4.34.55,6.49a31.81,31.81,0,0,0,1.11,4,6,6,0,0,1,.21,1.12,75.84,75.84,0,0,0,.63,7.59,14.37,14.37,0,0,1-.13,7.13,6,6,0,0,0-.17,4.06,2.9,2.9,0,0,1-.14,1.82,25.66,25.66,0,0,0-1.79,7c-.06.84-.24,1.57,1.06,1.66a3.31,3.31,0,0,1,2,1,5.39,5.39,0,0,0,4,1.45c.33,0,.87,0,.95.22.71,1.66,1.8.78,2.78.45.63-.21,1.23-.51,1.85-.72,2.37-.81,4.89-1.06,7.08-2.59s2.64-1.09,4,1.07a11.11,11.11,0,0,0,.7,1c1.21,1.53,1.77,1.66,3.41,1a26.49,26.49,0,0,1,4.94-1.94c2.06-.42,2.58-1.6,2.57-3.4,0-.68.22-1.23,1.09-1.2a2.31,2.31,0,0,0,.76-.24A12.57,12.57,0,0,0,509.36,323.1Zm-1.58,2.61c-.09.39-.08.8-.19,1.18-.26,1-.42,1.91-1.7,2.29-1.74.52-3.38,1.37-5.08,2.06-1.16.48-1.76.17-2.36-1.17-1.24-2.81-3-3.35-5.67-1.83a19.06,19.06,0,0,1-3,1.34c-1.75.62-3.52,1.15-5.29,1.7-.36.11-1,.28-1.09.14-.74-1.12-1.84-.73-2.81-.74-1.36,0-4.11-1.67-4.64-2.9a.91.91,0,0,1-.1-.51c.32-1.48.61-3,1-4.43.47-1.71,1.2-3.37.3-5.17a1.17,1.17,0,0,1-.06-.89c1.07-2.3.92-4.7.64-7.12-.19-1.68-.31-3.37-.5-5-.21-1.89-.4-3.78-.72-5.65-.19-1.13-.92-2.25-.87-3.34.1-2,.63-3.84-.32-5.93-.77-1.7-.61-3.82-1.92-5,.47-1.15.84-2,1.19-2.89a9.27,9.27,0,0,1,.69-1.72,43.86,43.86,0,0,0,3.16-4.52,13.87,13.87,0,0,0,.66-10.38l-2.24.86-4.62-6.35c1.22-3.41.69-5.2-1.44-8.22-1.46-2.07-1.59-4.83.18-6.28a12.22,12.22,0,0,0,3.55-4.93c.49-1.16.23-1.7-1-1.9s-1.66-.78-1.35-2a3.68,3.68,0,0,0,.19-1.41c-.35-2,.08-4.14-1.27-6-.6-.83.26-4.72,1-6a1.54,1.54,0,0,1,.27.3c.14.28.26.57.39.85a12.82,12.82,0,0,0,6.79,6.81c2.1.89,4.33,1.45,6,3.24a3,3,0,0,0,1.84.66c.75.07,1,.36,1.28,1.06.59,1.55,1.47,3,2,4.56.2.53-.14,1.27-.24,1.91A21.08,21.08,0,0,0,490,245c0,.6.33,1.2.37,1.8.08,1.51,0,3,.13,4.54s.32,3.3.57,4.94c.28,1.82.18,3.77,1.79,5.17a1.68,1.68,0,0,1,.47,1.45,9.06,9.06,0,0,0-.53,3.93c0,.2-.18.41-.21.63s-.13.7,0,.89a7.06,7.06,0,0,1,1.18,4.83,2.66,2.66,0,0,0,.19.91c.41,1.29.89,2.57,1.22,3.88.22.87.6,1.26,1.5,1,1.09-.3,1.55.38,1.91,1.22l1,2.36c-.11.52-.25,1.2-.38,1.89-.32,1.69-.69,3.37-.93,5.07a5,5,0,0,0,.08,2.33,14.41,14.41,0,0,1-.12,10.44,8.86,8.86,0,0,0-.78,2.36,48,48,0,0,0-.08,5.67,23.43,23.43,0,0,0,.63,5,31.41,31.41,0,0,0,2,5,2.43,2.43,0,0,0,1.29,1.2h0a4.89,4.89,0,0,0,1,1.12l-.07,0c.39.23.77.64,1.18.66a23.66,23.66,0,0,1,2.53-.12,5.43,5.43,0,0,1,2.19,1.07C508.32,324.39,507.9,325.21,507.78,325.71Z" transform="translate(-21.97 -84.54)"/><path d="M500.74,176.44a5.37,5.37,0,0,0-2.64-.62,34.7,34.7,0,0,0-4.16,1.4c-1.12.36-2.31.51-3.39.93a9.15,9.15,0,0,0-3.23,1.69,16,16,0,0,1-4.37,3.25,43.5,43.5,0,0,1-4.88,1.48,5.43,5.43,0,0,1-3.47-.12c-2-.57-3.62-2-5.82-2-.94,0-1.44.18-1.48,1-.09,2-.09,4,0,6a1.2,1.2,0,0,0,.18.53.45.45,0,0,0,0,.16,5.45,5.45,0,0,0,.69,1.64,3.84,3.84,0,0,0-.16,1.17c0,.29,0,.59,0,.7l3.29.52.11.33c-1.21.67-.89,1.32-.4,2.3a13.6,13.6,0,0,1,1.35,4.35c.13,1,.52,1.41,1.38,1.28,1.26-.19,2.5-.78,3.74-.76,3.11.07,4.91-2.06,6.66-4a14.77,14.77,0,0,1,4.74-3.52,12,12,0,0,0,1.92-1.15c1.39-1,2.8-2,4.11-3.12,1.16-1,2.74-1.62,3-3.41s.65-3.86,1.08-5.76c.25-1.11.27-2.41,1.69-3C500.86,177.7,500.89,176.49,500.74,176.44Zm-2.63,2.6a47.37,47.37,0,0,0-1.46,5.5,4.61,4.61,0,0,1-2,3.23c-1.1.83-2.08,1.82-3.15,2.7-.85.7-1.74,1.37-2.65,2-2.2,1.55-4.45,3-6.61,4.62a22.5,22.5,0,0,0-1.67,1.88,4.6,4.6,0,0,1-1.6,1,8.63,8.63,0,0,1-2.6.52c-.74,0-1.94-.1-2.14-.53a21.41,21.41,0,0,1-1.6-4.88,3.24,3.24,0,0,0-2-2.58c-.3-.13-.62-.2-.91-.34l-1.24-3.26c0-.15,0-.31,0-.46a23.14,23.14,0,0,1,.46-3.49,1.09,1.09,0,0,1,1.68-.73,39,39,0,0,0,3.82,1.6,7.32,7.32,0,0,0,2.78.51c1.14-.08,2.16-.94,3.42-.55.27.08.68-.18,1-.35,1.75-1,3.47-2,5.22-3,.73-.41,1.76-.49,2.24-1.07a3.85,3.85,0,0,1,3.14-1.68c.4,0,.8-.38,1.22-.51,1.51-.46,2.85-1.74,4.73-1A4.87,4.87,0,0,1,498.11,179Z" transform="translate(-21.97 -84.54)"/><path d="M686.6,236.89a5.12,5.12,0,0,1-.8-1.65c-.57-1.22-.37-2.79-1.89-3.59-1-.53-1.43-3.09-.86-4.16a2.32,2.32,0,0,0,.34-1,2.13,2.13,0,0,1,.84-1.81,2.17,2.17,0,0,0,.31-1.87,1.41,1.41,0,0,0-1.84-.9c-1.4.3-2.82.54-4.24.74a1.64,1.64,0,0,1-1-.31,5.77,5.77,0,0,0-4-.69c-.74.09-1.49.11-2.24.17-.92.09-2-.09-2.71.34-2,1.19-3.71.75-4.79-1.3a5.54,5.54,0,0,0-1.89-1.63,13.85,13.85,0,0,0-1.57-.66,2,2,0,0,0-2.68.63,1.42,1.42,0,0,1-1.08.52,5.78,5.78,0,0,0-5.07,1.43c-.16.16-1.13-.12-1.18-.31a14.84,14.84,0,0,1-.39-3.3c0-2.35.15-4.69.33-7,.11-1.4.45-2.79.57-4.19.16-1.8.75-3.8.18-5.37-1-2.66-.56-5.35-.84-8a7,7,0,0,0-2.63-5.12c-1.83-1.42-2.48-3-1.82-5.09.41-1.34.49-2.54-.73-3.37.71-1.32,1.35-2.51,2-3.7s1.47-2.46,2.09-3.75a6.46,6.46,0,0,0,.84-2.72,44.38,44.38,0,0,0-.61-4.83c0-.15.14-.31.17-.48.07-.4.29-.89.15-1.2-.86-1.92-1.82-3.79-2.73-5.69a4.64,4.64,0,0,1-.68-1.83c0-.92.26-1.81-.91-2.2a23,23,0,0,0-2.5-.82c-1.78-.37-3.58-.6-5.35-1-.31-.07-.55-.53-.8-.83-.84-1-1.47-2.37-2.54-3-3.28-2.08-6.69-4-10.12-5.78a2.72,2.72,0,0,0-2.06.35c-.39.2-.85,1.2-.73,1.34,1.15,1.3.17,1.83-.74,2.45-.33.22-.75.49-.86.82-.16.51-.34,1.35-.07,1.61a43.11,43.11,0,0,0,4.86,4.28,2.8,2.8,0,0,1,1.28,2.68c-.06,2.06,0,4.12,0,6.32a7.54,7.54,0,0,1-1.46.74c-1.39.4-1.9,1.09-1.6,2.49.16.77.49,1.5.65,2.27.63,3.11,1.22,6.23,1.82,9.35a7.94,7.94,0,0,1,.31,2.22c-.32,3.08-.64,6.17-1.2,9.22-.21,1.15,0,1.57,1.06,1.67l1.28.13a1.21,1.21,0,0,1-.66,1.91,3,3,0,0,0-1.52,3.18c.08,2.14,1.84,3.08,3.2,4.24a13.29,13.29,0,0,0,2.71,1.39c-.31.28-.58.48-.8.72-.47.5-1.21,1-1.31,1.55a34.9,34.9,0,0,0-.47,4.16,8.11,8.11,0,0,0,1.38,4.36,14.87,14.87,0,0,1,2,7.19,8.54,8.54,0,0,0,.16,1.69c.26.89-.21,1.09-.89,1-1.48-.22-3-.45-4.4-.79-1.85-.44-3.68-.94-5.5-1.51-1-.31-2-.83-3-1.19a2,2,0,0,0-1.14,0c-1,.3-1.92.67-2.88,1-.2.07-.53.17-.55.3-.15,1-.79,1.21-1.63,1.17a20.4,20.4,0,0,1-2.22-.2,9.92,9.92,0,0,0-2.2-.47,2.73,2.73,0,0,0-1.61,1c-.2.24-.09,1,.13,1.31.91,1.47,2.42,2.71,1.54,4.79-.09.22.28.62.4,1,.53,1.53,1.43,3,.4,4.72a.75.75,0,0,0,.1.7,12.46,12.46,0,0,0,1.91,1.64c1.51,1,3.15,1.73,4.61,2.75,1.85,1.3,2.89,1.37,4.61-.05.1-.08.23-.2.34-.19,1.93.11,4-.14,5.76.45,2.18.72,4.12,2.15,6.2,3.22a4.76,4.76,0,0,0,1.49.44l.89,1.4c-.13.32-.26.63-.39.94-.76,1.94-1.86,3.8-1.31,6a11.46,11.46,0,0,1,.59,3.1c-.09,2.25-.44,4.49-.65,6.74-.08.83-.41,1.89,0,2.45a30.38,30.38,0,0,0,3.15,3.55c.71.78,1.41,1.57,2.12,2.35a9.87,9.87,0,0,1-3.44-.32c-1-.28-1.32.13-1.3,1,0,1.27.06,2.54.13,3.81.05,1,.15,2,.22,3,.16,2.28.08,4.59,1,6.75,0,.11,0,.27,0,.4a15.1,15.1,0,0,0,.27,1.52c.35,1.34,1.59,2.48,1,4s-1.32,2.72-1.73,4.15-1.53,2.81-1.09,4.58c.35,1.37.32,2.83.54,4.23.33,2.18.67,4.37,1.12,6.53.32,1.53.93,3,1.24,4.52.51,2.51.93,5,1.31,7.57.26,1.74.34,3.48-1.48,4.58a.43.43,0,0,0-.19.18c-.2.57-.6,1.2-.49,1.72.06.32.91.47,1.38.74s1,.43,1.23.81a23.84,23.84,0,0,1,.85,2.37c.13.31.47.79.68.77,1.08-.1,2.15-.32,3.22-.52a10.69,10.69,0,0,0,1.17-.4c-.29.58-.42.8-.51,1-.5,1.18.43,3.35,1.49,3.39,1.76.06,3.52,0,5.28,0,.81,0,1.56-.12,2,.88.15.36.83.55,1.31.69,1.87.51,4.06-.24,5.66,1.42.15.16.5.14.76.16l5.19.26c1.21.06,3-2.06,2.81-3.27-.33-1.75,0-2.31,1.66-3,1.35-.54,2.45-1.3,2.14-3.05a1.12,1.12,0,0,1,.3-.71,4,4,0,0,0,.28-4.05c-.59-1.47-1.67-2.82-3.72-2.32a1.91,1.91,0,0,1-.92-.12,14.06,14.06,0,0,0-3.1-.9c-1.07,0-1.62-.37-1.74-1.38-.19-1.72-.38-3.41-1.64-4.78a1.12,1.12,0,0,1,.18-1c.95-.39,1-1,.75-1.85a6.23,6.23,0,0,0-.67-2.11,36.32,36.32,0,0,0-3.21-3.2,15.45,15.45,0,0,1-1.62-1.36,2.46,2.46,0,0,1-.5-1.54,7.9,7.9,0,0,1,.56-1.91c.77-2.34.43-2.84-1.94-2.9-.18,0-.41.09-.53,0-.29-.2-.73-.46-.75-.71-.16-2.49-.36-5,.91-7.33a3.59,3.59,0,0,0,.09-3.81,1.66,1.66,0,0,1-.14-1.14c.42-1.73.92-3.43,1.36-5.15a3.27,3.27,0,0,0,.06-1c-.11-1.42-.26-2.84-.36-4.26s-.13-2.75-.25-4.12a1.22,1.22,0,0,0-.48-.75,3.22,3.22,0,0,1-1.52-3.22c.23-1.19.19-2.62,1.73-3.24.34-.13.6-.92.58-1.39-.1-1.62-.32-3.24-.55-4.85a17.18,17.18,0,0,0-.75-4,3.71,3.71,0,0,1,.19-3.18c.13-.28.4-.64.32-.86-.63-1.72.14-3,1.26-4.16.27-.28.65-.46.92-.73s.63-.59.59-.85c-.16-1.26-.47-2.5-.66-3.76a1.34,1.34,0,0,1,.21-1,3.09,3.09,0,0,1,3.66-.18c1.17.76,2.46,1.84,3.69,1.85a14.5,14.5,0,0,0,5.06-1.4c1.85-.72,3.45-2,5.47-2.38,1.05-.2,1.29.21,1.33,1.19a6.43,6.43,0,0,0,.61,2.37,13.5,13.5,0,0,0,1.58,2.55c.77,1,1.74,1.85,2.47,2.86,1.19,1.65,2.32.46,3.48,0l.13,0a2.66,2.66,0,0,0,2.12-3,3.32,3.32,0,0,1,1.22-3.3C687.34,238.33,687.48,237.69,686.6,236.89Zm-2.9,3.31c-.41.46-.29,1.38-.46,2.08-.13.53-.18,1.32-.52,1.5a2.36,2.36,0,0,1-1.75-.06c-.5-.2-.86-.75-1.31-1.11-.22-.18-.5-.28-.74-.45s-.79-.41-1-.74a25.92,25.92,0,0,1-1.14-2.4c.85-.76.32-1.71-.21-2.68-.12-.22-.08-.52-.19-.75-.29-.61-.5-1.54-1-1.71-.77-.28-1.82-.6-2.5.47a2.17,2.17,0,0,1-.93.68c-1.57.72-3.16,1.41-4.74,2.11-2.22,1-4.33,1.74-6.59-.15-2-1.67-6-1-7.77,1a1.93,1.93,0,0,0,.64,3.15c1.26.63,1.25,1.14.33,2.22s-2.18,2.35-2.21,4.18a15,15,0,0,1-.81,2.71,9.22,9.22,0,0,0-.21,2.4,7.84,7.84,0,0,0,.5,1.55c.21.77.39,1.56.57,2.34s.36,1.6.53,2.4a4.59,4.59,0,0,0,.12.76,2,2,0,0,1-.88,2.73c-1.32.86-2.12,4.31-1.3,5.66a9.45,9.45,0,0,1,1.86,5.42,2.11,2.11,0,0,0,.11.66,14.68,14.68,0,0,1,0,7.4,11.68,11.68,0,0,1-1.1,3,2.57,2.57,0,0,0,.14,3.24c.21.26.08.87,0,1.29s-.45.57-.52.89c-.61,2.93-1.08,5.82-.19,8.85.68,2.32.45,2.39,2.83,2.55.07,0,.13.11.26.24-.19.64-.42,1.3-.59,2-.56,2.18.21,3.27,2.41,3.43,1.68.12,3.55,3.1,3.14,4.71-.26,1-.55,2.37-.12,3.19a14,14,0,0,1,1.67,5.6,1.65,1.65,0,0,0,2,1.62,6.61,6.61,0,0,1,2.08.35,27.27,27.27,0,0,0,3.21.69c1.65.14,2.48,1.11,2.09,2.74-.15.65-.45,1.26-.64,1.9a2.13,2.13,0,0,1-2.07,1.72A2.78,2.78,0,0,0,665,331a4.62,4.62,0,0,0-.16,2.49c.25,1.62-.44,2.24-2,2.33s-3,.19-4.35-1a3.71,3.71,0,0,0-2.29-1c-1,0-2,.28-2.87-.31-.33-.21-.63-.61-1-.64a66.78,66.78,0,0,0-6.8-.55c-1.88,0-1.88.16-1.43-1.59.08-.3.12-.61.2-.91.28-1.15,0-1.62-1.2-1.57a17,17,0,0,0-2.36.38c-1.54.3-1.87,0-2.41-1.43a26,26,0,0,0-1.54-3l1.38-.8a41.14,41.14,0,0,0,0-4.87,20.35,20.35,0,0,0-1.26-6.13,27.52,27.52,0,0,1-2.24-9.09,36,36,0,0,0-.69-6.11,4.78,4.78,0,0,1,.17-3.33c.72-1.77,1.48-3.54,2.25-5.29.5-1.15.36-3.78-.41-4.43a2.2,2.2,0,0,1-.76-2.15c.05-.43.15-1-.06-1.3-.94-1.3-.93-2.74-1.08-4.26-.18-1.81-.69-3.54-.35-5.42.27-1.51.34-1.76,1.83-1.39.38.1.79.5,1.1.43a4.9,4.9,0,0,0,2.06-.88c.39-.33.76-1.33.56-1.6-1.1-1.45-2.45-2.71-3.56-4.16a12,12,0,0,1-2.25-3.75c-.29-1,.37-2.24.49-3.39a13.45,13.45,0,0,0-.45-6.4,4.6,4.6,0,0,1,0-2.6,36.78,36.78,0,0,1,1.43-3.85,1.5,1.5,0,0,0-.14-1.51,2.77,2.77,0,0,0-.93-1.55,1.82,1.82,0,0,0-.41-.64,17.17,17.17,0,0,0-1.75-1.18c-4.32-2.66-8.81-4.2-13.92-2.33-.92.34-2.11.6-2.67-.85-.12-.3-.65-.43-1-.66l-1.6-1.11L610.1,232c-.1-.67-.2-1.63-.41-2.56s-.93-2.14-.72-3.05a5.45,5.45,0,0,0-.5-3.2c-.13-.39-.22-.8-.36-1.28a6.31,6.31,0,0,0,6.12-1.62c.18-.18.5-.19.72-.34,1.21-.82,2.37-.16,3.56.07,1.51.3,3.07.4,4.56.77,2,.48,3.86,1.25,5.83,1.68a5.62,5.62,0,0,0,3-.19c.34-.12.29-1.34.41-2.06,0-.09,0-.18,0-.26a16,16,0,0,0-2.06-9.67,17.89,17.89,0,0,1-1.18-3.81c1.55,0,1.92-.71,1.07-1.86s-.26-1.62.43-2.27a7.32,7.32,0,0,0,.92-.77c1-1.32,1.25-2.64-.67-3.31a9.55,9.55,0,0,1-4.49-3.17c-.8-1-.73-1.61.24-2.4,1.87-1.53,1.75-3.36-.41-4.33-1-.44-.88-.9-.74-1.63.47-2.45,1-4.88,1.35-7.35a11.33,11.33,0,0,0-.38-3.4c-.46-2.46-1-4.91-1.49-7.38-.2-1-.21-2.12-.44-3.15s-.21-1.6,1-1.72c1.43-.15,2.22-1.23,2.94-2.27.21-.3,0-1.05-.24-1.46s-.75-.43-1.23-.67c.29-1.77.61-3.52.84-5.27a1.4,1.4,0,0,0-.38-1.16,13.12,13.12,0,0,1-3.87-3.95l-1.35-1.9,1.75-3.29c2.65,1.25,5.35,2.44,8,3.8.9.47,1.88,1,2.07,2.34a4.56,4.56,0,0,0,3.64,3.53c1.08.16,2.14.51,3.22.58,2.44.17,4,1.17,4.69,3.71.27,1,1.45,1.79,2,2.77a5.83,5.83,0,0,1,.79,2.45c.12,1.53,0,3.08,0,4.62a7.37,7.37,0,0,1-.08,2.33,51.76,51.76,0,0,1-2.53,6,39.79,39.79,0,0,1-2.79,4.11c1.61.76,1.71,1.85.77,3.12,0,.06,0,.17,0,.26-.25,3.21,1.63,5.4,3.73,7.4A1.58,1.58,0,0,1,648,192c.34,3.11-.57,6.42,1.45,9.26a.68.68,0,0,1,0,.39c-.11,2.06-.21,4.12-.33,6.18-.06,1-.19,1.93-.23,2.9-.09,2-.16,4-.21,6a19.79,19.79,0,0,0,0,3.83c.47,2.72,2.23,3.36,4.47,1.82a3.62,3.62,0,0,1,1.49-.44c.88-.13,1.78-.17,2.66-.28.24,0,.65-.16.66-.28.2-1.8,1.13-.75,1.87-.52.37.12.78.12,1.16.22s.74.18.78.35c.29,1.32,1.48,1.81,2.27,2.67,1,1.1,2.15,1,3.28.78,2-.32,4-1,6.06-1.23a7.4,7.4,0,0,1,3.05.52c1.29.42,2.49.81,3.86.22a4.24,4.24,0,0,1,1.64,0c-.16.94-.29,1.65-.4,2.36-.06.38,0,.83-.13,1.14a4.38,4.38,0,0,0,.43,4.52,15.51,15.51,0,0,1,1.91,2.64C684.72,236.69,685.27,238.44,683.7,240.21Z" transform="translate(-21.97 -84.54)"/><path d="M386.22,323.76a17.31,17.31,0,0,1-.21-3.41c0-.16.3-.32.41-.51a1.75,1.75,0,0,0-1.15-2.33,17,17,0,0,1-3.62-.55c-.87-.32-2.31-.54-1.87-2.19.06-.22-.22-.57-.4-.81a9.56,9.56,0,0,1-1.59-2c-.59-1.49-.88-3.09-1.38-4.62-.85-2.61-.76-5.47-2.16-8a3.9,3.9,0,0,1-.11-1.81c0-1.19.17-2.39.08-3.57s-.41-2.12-.59-3.19a18.43,18.43,0,0,1-.45-3.35c0-1.84,1.11-3.67-.19-5.51-.24-.34,0-1,0-1.58a6.92,6.92,0,0,0,.24-1.65c-.28-1.81-.76-3.6-1-5.42a4.53,4.53,0,0,0-3.32-4,2,2,0,0,1-1.44-2.67,13.89,13.89,0,0,0,.28-1.44c.37-1.68.38-3.52,2-4.65a.77.77,0,0,0,.29-.43c.31-1.46.69-2.91.87-4.38a18.64,18.64,0,0,0,.12-4.12,5.38,5.38,0,0,0-2.42-4.47c-1.5-.86-2.29-1.89-1.8-3.71a2.33,2.33,0,0,0-.33-1.64c-.7-1.12-1.65-2.1-2.31-3.24a4.34,4.34,0,0,0-3.09-2.1c-1.42-.32-2.81-.79-4.21-1.23a17.71,17.71,0,0,1-2.35-.91,5.79,5.79,0,0,1-1.84-1.18c-1-1.17-1.43-1.3-2.79-.45-1.08.67-1.69.51-2.16-.68a7.23,7.23,0,0,1-.5-2,17.15,17.15,0,0,0-.1-3c-.19-.68-1-1.19-1.5-1.77-.46.43-1.13.77-1.33,1.3a26.76,26.76,0,0,0-1.21,4.23c-.17.85-.43,2.07,0,2.59a8.56,8.56,0,0,1,1.51,3.57c.42,1.53.76,3.34,2.35,4.13s1.57,1.93,1.5,3.29a5.74,5.74,0,0,0-.07.91c.26,2.46.5,4.93.84,7.38s.82,4.9,1.15,7.36c.16,1.15.1,2.34.17,3.5a28.17,28.17,0,0,0,.39,4.78,11.42,11.42,0,0,1-.5,6.27,5.37,5.37,0,0,0,1.7,5.93c.19.15.52.34.68.28,1-.41,2-.85,3-1.36l.36,1.65c-.09.5-.13,1-.26,1.51-.29,1.1-.73,2.17-1,3.29-.37,1.71-.66,3.45-.9,5.19,0,.32.3,1,.43,1,.91-.07,1.81-.27,3-.48.9,1.2.74,1.69-.93,2.44a1.51,1.51,0,0,0-.82,1,34.32,34.32,0,0,0-.27,4.89,33.37,33.37,0,0,0,.67,3.48,2.52,2.52,0,0,0,2.3,2.47c.56.12,1.11.28,1.71.43-.29,1.61-.28,3.23-.92,4.52a6.52,6.52,0,0,0-1,3.17,43.37,43.37,0,0,0,0,5.14c.16,1.08,1,2,1.5,3.09a3.71,3.71,0,0,1,.52,2.12,20.36,20.36,0,0,1-1.74,4c-.65,1.2-.6,1.94.52,2.7,1,.65,1.68.1,2.34-.57.21-.21.36-.58.6-.66,1.37-.44,2.74-.89,4.14-1.2s2.88-.49,4.33-.72l.22.42a12.56,12.56,0,0,0-1.53,1.42,5.07,5.07,0,0,0-.54,1.4,9.39,9.39,0,0,0,1.63-.17,22,22,0,0,0,2.12-.82l-.14,1.41c1.26-.52,2.32-1,3.38-1.38a21.07,21.07,0,0,1,3.48-1.28c1.93-.38,3.89-.41,5.71-1.41C387.07,326.14,386.87,326.63,386.22,323.76Zm-1.35.08A2.65,2.65,0,0,1,384,326c-.84.91-1.64.31-2.41.54a48.69,48.69,0,0,0-5.86,1.82,3.18,3.18,0,0,1-3.58-.24v-2.4c-2.2,1.41-4.7-.66-6.76,1.27a3.17,3.17,0,0,1-2,.6,2,2,0,0,0-2.11,1.63c-.12.36-.68.57-1,.84l-.47-.37c1.81-1.24.4-3.73,2.24-5,.08-.05.08-.26.07-.38-.12-1.12.06-2.33-1-3.18a1.76,1.76,0,0,1-.58-1c-.25-1.61-.5-3.23-.6-4.86a16.37,16.37,0,0,1,.22-3.32,9.44,9.44,0,0,1,.64-1.55,31.71,31.71,0,0,0,1.27-4c.09-.46-.42-1.14-.84-1.55s-.89-.12-1.27-.31c-.82-.4-2-.73-2.29-1.41a13,13,0,0,1-.87-4.29,7,7,0,0,1,.55-3c.17-.42,1-.56,1.53-.86.22-.13.56-.37.54-.52a17.39,17.39,0,0,0-.77-4.13c-.19-.48-1.44-.54-2.38-.85,0-.16-.26-.73-.07-1,.62-.94.19-1.75,0-2.66a2.27,2.27,0,0,1,.4-1.81c1.4-1.34,1.57-1.63.93-3.49a2.45,2.45,0,0,0-.51-.68l-.31-1.41a4.38,4.38,0,0,1,.17-.45,3.85,3.85,0,0,0-1.35.18,2.45,2.45,0,0,1-2.92-.65c-1.15-1.24-.38-2.48-.18-3.68.33-1.94,1.18-3.86,0-5.79-.12-.19-.18-.6-.07-.71.85-.85.07-1.68,0-2.5,0-.27-.19-.53-.18-.79.06-1.16.53-2.44.18-3.44-.69-2-.32-4-.72-6a42.12,42.12,0,0,1-.38-4.46c-.09-1-.23-1.94-.37-2.91-.11-.73-.25-1.47-.43-2.18s-.75-1.45-.53-1.81c.9-1.49-.29-2.08-1.06-2.72a7.29,7.29,0,0,1-2.9-5.13c-.12-1.25,0-2.84-1.46-3.66-.12-.06-.12-.51,0-.73.36-.93.76-1.83,1.08-2.57.29,1.31.54,2.72.92,4.09s.84,2.47,1.29,3.7c.09.24.26.6.44.63a1.26,1.26,0,0,0,.81-.24c-.15-1.69,1.61-1.62,2.4-3.07.64,2.8,3,2.62,4.59,3.33s3.51.42,5.28.65a1.94,1.94,0,0,1,1.15.63c.54.66.8,1.74,1.47,2.07,1.62.8,1.69,2.19,1.5,3.51a4,4,0,0,0,2.07,4.2,5.31,5.31,0,0,1,1.33,1.29c1.66,2.36,1.6,4.94.72,7.54-.94,2.81-2,5.59-3,8.38-.74,2.06-.17,4.68,1.76,5.63,2.57,1.26,2.86,3.31,2.86,5.7a6.64,6.64,0,0,0,.36,1.4,4.92,4.92,0,0,1,.28,1.53c-.14,1.38-.47,2.74.43,4a1.37,1.37,0,0,1,.07.91,24.1,24.1,0,0,0,.47,9.91,10.77,10.77,0,0,1,0,2.63,11.16,11.16,0,0,0,0,2.66c.91,3.74,1.89,7.46,3,11.16a16.28,16.28,0,0,0,1.56,3,7.31,7.31,0,0,1,.94,1.7c.36,1.64,1.54,2.61,2.68,3.61a1.27,1.27,0,0,0,.88.15c1.1-.13,2.2-.3,3.36-.47a4.21,4.21,0,0,1,.11.81C385.12,320.89,384.87,322.37,384.87,323.84Z" transform="translate(-21.97 -84.54)"/><path d="M350.55,198.15a2.86,2.86,0,0,0,3.37,1.49,10,10,0,0,1,1.27-.36c1.23-.29,2.47-.54,3.68-.87.29-.08.52-.39.77-.59-.29-.2-.56-.42-.87-.6a.87.87,0,0,0-.28-.09,4.21,4.21,0,0,1,.08-.44l.37-.23c1.91-1.24,4-2.19,5.33-4.23a11.37,11.37,0,0,1,2.58-2.48c.94-.74,2-1.32,3-2,1.47-1,2.93-2,4.36-3.05a2.48,2.48,0,0,0,1-1.15c.49-2,1.12-3.93.17-6a.83.83,0,0,1,0-.73,1.52,1.52,0,0,0-.4-2.33c-.47-.34-1.48-.08-2.21.1-1.28.31-2.56,1.15-3.79,1.06a4.76,4.76,0,0,0-3.09.81,4.78,4.78,0,0,1-1.31.65,13,13,0,0,0-6.19,4c-1.52,1.59-3.43,1.26-5.23,1.52.26-.16.55-.31.63-.38a3.52,3.52,0,0,0,.82-1l.58-.2-.14-.49h-.4a.49.49,0,0,0-.79,0l0,0a5.17,5.17,0,0,1-4-.5,9.28,9.28,0,0,0-2.54-1.14,1.31,1.31,0,0,0-.79.13.54.54,0,0,0-.79.22,5.2,5.2,0,0,0-.24,2.55c-.06,1.32-.1,2.44-.19,3.55a7,7,0,0,0,1.68,4.93C348.69,192.67,349.45,195.54,350.55,198.15Zm-3.8-11.48a36.18,36.18,0,0,0-.06-4.86c0-.07-.07-.15-.17-.23a4.61,4.61,0,0,1,.06-1.15.4.4,0,0,0,.12.1,20.93,20.93,0,0,0,5,1.56,2.76,2.76,0,0,0,.78,0,1.27,1.27,0,0,0-.73,1.11h0l0,.06a1,1,0,0,0,0,.14.39.39,0,0,0,.11.19c.08.26.17.51.3.54a13.11,13.11,0,0,0,2.38.23c.45,0,.94-.22,1.34-.09a2.3,2.3,0,0,0,2.48-.78c.57-.57,1.09-1.19,1.66-1.76s1.19-1.19,2.21-.83c.22.08.79-.26.88-.52.43-1.2,1.46-1.46,2.48-1.8,1.86-.63,3.71-1.31,5.57-1.95.89-.3,1.8-.55,2.7-.82a13.77,13.77,0,0,0,.08,1.43,8.6,8.6,0,0,1,.32,1.32c0,.57-.21,1.14-.27,1.72a5.09,5.09,0,0,1-2.27,4c-1.55,1-3.14,2-4.61,3.15s-3,2.52-4.4,3.81a17.61,17.61,0,0,1-2.66,2.39l-.6.34a.45.45,0,0,0-.43.1,5.17,5.17,0,0,0-.38.44,2.17,2.17,0,0,0-.9,1.57,5.15,5.15,0,0,0-.25,1.06c-1.27.21-2.45.35-3.58.66-1.63.44-2.1.16-2.59-1.47a9.51,9.51,0,0,0-1.46-3.06c-.49-.64-.63-.95-.1-1.55.23-.26.49-.88.37-1-.8-.87-1.57-2-2.58-2.35C346.33,188,346.68,187.53,346.75,186.67Z" transform="translate(-21.97 -84.54)"/><path d="M449,340.22a36.85,36.85,0,0,0-5,0c-.74.05-1.47.8-2.16.74a14.93,14.93,0,0,1-4.43-.93,10.1,10.1,0,0,0-5.07-.87c-2,.22-2.77,1-3,3a2.37,2.37,0,0,1-.45,1.05,2.84,2.84,0,0,1-2.89.92c-2.26-.22-4.52-.51-6.77-.79-.49-.06-1-.17-1.46-.24l-1.78-.26a5.92,5.92,0,0,0-1.34-.76c-1.7-.4-3.41-.73-5.12-1.08-4-.82-8-1.58-11.91-2.49-3.55-.81-7-1.84-10.59-2.68-2.2-.52-4.49-.7-6.66-1.33-2.5-.72-2.77-.79-4.56,1.1a1.53,1.53,0,0,1-.42.3c-1.6.81-3.22,1.58-4.8,2.42a11.38,11.38,0,0,1-4.52.52,1,1,0,0,0-.93.28,11.25,11.25,0,0,0-.53,1.31l-.46.27c-.29.17-.7.48-1.12.67a2.46,2.46,0,0,0-1.06-.62c-2.56-.34-5.14-.65-7.72-.82-2.43-.16-5,.65-7.08-1.37a.21.21,0,0,0-.13,0c-2.51-.15-5-.37-7.52-.43-1,0-2.17.65-3.11.42a4.68,4.68,0,0,0-4.95,1.43,3.82,3.82,0,0,1-3.23,1.2c-2.76-.2-5.54-.09-8.32,0-3.43.07-6.86.3-10.29.26-1.26,0-2.38,0-3.08.64a14.34,14.34,0,0,0-2.75-1.28c-2.42-.51-4.9-.79-6.93-2.42a.85.85,0,0,0-.48-.23c-.79,0-1.95-.22-2.3.19-1.24,1.48-2.63,1.59-4.32,1.16a1.64,1.64,0,0,0-2.15.87c-.34.92-.56,1.9-1.81,1.63a10.09,10.09,0,0,1-2.72-1c-.9-.49-1.58-1.45-2.51-1.8-4-1.53-8.08-2.9-12.12-4.36a2,2,0,0,1-.89-.7c-1-1.45-2.06-2.62-4.06-2.5a25.17,25.17,0,0,1-3.69-.22c-4.07-.36-8.1-.86-12,1.11a31.1,31.1,0,0,1-6.5,2.05,22,22,0,0,1-7.69,1,11.57,11.57,0,0,0-1.84-.25,2,2,0,0,0-.74.23q-.37-.68-.7-1.38c.11-.55-.26-1-.94-1.3s-1.53-.93-2.36-1.22a42.16,42.16,0,0,0-5.87-1.76,52.22,52.22,0,0,0-6.42-.58c-1.12-.07-2.24,0-3.36,0-1.47,0-2.94-.12-4.41-.16-1.23,0-2.47-.07-3.7,0a1.28,1.28,0,0,0-.41.11,9.69,9.69,0,0,0-2.09.37,3.66,3.66,0,0,0-2.2-2.9c-1.39-.56-2.82-1-4.25-1.47s-2.69-.71-4.42-1.17c.7-.57,1.06-.92,1.48-1.2,1.73-1.16,2.09-2,1.35-3.4a6.68,6.68,0,0,0-1-1.14c.32-.53.65-1,1-1.58.61-1.07.53-2.53-.26-3.06-2-1.34-2.48-3.24-2.55-5.53a8.6,8.6,0,0,0-1.28-4,28.21,28.21,0,0,0-3.23-3.89,5.47,5.47,0,0,0-.63-.6,2.17,2.17,0,0,0-.27-1.73l.24,0c-.27-.4-.46-.92-.83-1.17-1.82-1.22-3.72-2.33-5.52-3.57a2.3,2.3,0,0,1-.72-1.4c-.34-1.93.88-3.18,2.11-4.38,1.55-1.52,1.56-1.51.58-3.61-.15-.32-.29-.66-.46-1a12.64,12.64,0,0,1-1.71-6.36,3.17,3.17,0,0,0-1.34-2.73,3.45,3.45,0,0,1-1.17-1.25c-.72-2.08-1.34-4.19-2-6.3-.69-2.41-1.41-4.82-2-7.27s-.86-5-1.33-7.47c-.6-3.14-1.28-6.27-1.9-9.41-.13-.67-.15-1.36-.22-2l.37-.1a3.72,3.72,0,0,1,.3.57c.23.69.4,1.55,1.4,1.08.78-.36.84-.9.5-1.85a45.6,45.6,0,0,1-1.21-5.41,10.66,10.66,0,0,0-.9-3.19c-.94-1.55-2.23-2.89-3.3-4.37-1.24-1.72-3.09-3-3.61-5.22-.41-1.72-.63-3.49-1-5.24s-.75-3.76-1.06-5.65q-.81-4.92-1.52-9.85a27.5,27.5,0,0,1-.29-3.7c0-2.06-.21-4.16,1.83-5.65.56-.41.25-1.24-.56-1.57-2.32-.94-4.07-2.32-3.76-5.17a.39.39,0,0,0,0-.13,35,35,0,0,1-1.59-10c.1-3.43-.77-7,1.32-10.16.11-.17.05-.44.09-.66a4.71,4.71,0,0,0-2.29-4.91,5.89,5.89,0,0,1-2.33-3,11.7,11.7,0,0,0-1.68-2.48c-1-1.4-2-2.78-3-4.19-.32-.46-.41-1.14-.82-1.46a42.34,42.34,0,0,0-3.77-2.69c-3.06-2-3.27-3.11-1-5.81.56-.68,1-1.49,1.48-2.21,1.18-1.67,2.35-3.33,3.58-5,.2-.27.7-.32,1.18-.53l.2-.75c2,.34,4,.56,5.9,1,1.18.3,2.8.7,3.27,1.57a2.68,2.68,0,0,0,2.83,1.48c2.52-.1,5-.46,7.54-.69.43,0,.88.13,1.3.08,1.12-.13,2.55.06,3.28-.57a27.17,27.17,0,0,0,6-8.17l.4-.75a5.67,5.67,0,0,0,1.6,0l0,.07a18.3,18.3,0,0,1,3.3-.76,13.16,13.16,0,0,1,3.39.43c3,.71,6,1.61,9,2.23a20.51,20.51,0,0,0,5.4.4c2.46-.17,4.92-1,7.35-.94,1.91.06,2.21-.89,2.71-2.19L207,122.72a26.71,26.71,0,0,1,2.86-2.23c.39-.23,1.09,0,1.63.13a9.32,9.32,0,0,0,2.17.66c1.39,0,2.94,1,4.17-.52a.53.53,0,0,1,.51,0c1.23,1.12,2.73.53,4.1.62,1.58.1,3.18-.1,4.77-.12,1.06,0,2.19-.15,2.74,1.15a.75.75,0,0,0,1.39.2c.83-1,1.55-2,2.31-3.08a13.62,13.62,0,0,1,2.92-2.16.42.42,0,0,0,.18-.18c2.62-1.77,6.25-5.13,6.25-5.78a15,15,0,0,1-2.33-.24c-2.93-.76-5.77.06-8.64.42h0c-.08-.25-.12-.69-.16-.8a1.58,1.58,0,0,0-.44-.64l-.14-.1a4.22,4.22,0,0,0-.8-.93q-2.8-2.14-5.69-4.17a5.86,5.86,0,0,0-3.2-1.43,10.07,10.07,0,0,1-4.57-1.23,5.69,5.69,0,0,0-3.27-.49c-1.75.2-3.45.86-5.2,1.08a20.53,20.53,0,0,1-4.12-.11c-2.16-.17-4.31-.45-6.47-.63-1.27-.1-2.54-.09-3.81-.15-2-.1-4-.29-6-.3s-4,.28-5.68-1.29a1,1,0,0,0-.72-.28c-1.84.45-3.26-.52-4.76-1.31-1-.55-2.1-1.08-3.19,0-.18.17-.58.12-.88.17a36.66,36.66,0,0,0-4.94.79,37.93,37.93,0,0,0-5.21,2.17,19,19,0,0,1-5.33,1.71,27.31,27.31,0,0,0-3.93,1.21c-2.57.79-5.12,1.61-7.71,2.32-1.07.3-2.22.3-3.31.54-.76.17-1.68.39-1.29,1.54a9.13,9.13,0,0,0,.69,1.51,12.05,12.05,0,0,0-.83,1.6l-.12-.08c-.94-.46-1.95-.8-2.86-1.31-.57-.31-.94-1-1.52-1.25-2.33-.85-4.7-1.62-7.08-2.32-.85-.25-1.75-.4-1.84-1.44-.11-1.37-.08-2.75-.08-4.13a.72.72,0,0,1,.37-.51c.79-.37.78-.91.34-1.51s-1-1-1.81-.57a3,3,0,0,1-1.49.33c-2.63-.14-5.25-.31-7.87-.54a13.75,13.75,0,0,1-2.59-.53c-1.85-.53-3.44.22-5,1-.18.09-.25.38-.34.65l0,0a3.65,3.65,0,0,1-1.81.67.38.38,0,0,0-.39.19c-1.75.5-3.48,1.11-5.22,1.67a10.73,10.73,0,0,1-1.38.33,8.79,8.79,0,0,0-1.78.27c-1.72.71-3.39,1.54-5.1,2.26-.3.13-1,0-1.09-.16-.53-.88-1.13-1.33-2.18-1a.68.68,0,0,1-.61-.18c-.71-1-1.82-.77-2.77-1.06a10.31,10.31,0,0,0-7.64.38c-2.38,1.14-4.71,2.37-7.1,3.47a15,15,0,0,1-2.61.64c-.37.09-.9.13-1.07.38-.81,1.2-1.6.5-2.21-.07-.94-.88-1.72-1.94-2.61-2.88,0,0-.09-.06-.13-.1a3.31,3.31,0,0,0-3.16-1.56c-1.23-1.15-2.45-2.29-3.69-3.39a17.19,17.19,0,0,0-8.31-4.27c-1.73-.33-3.72-.2-4.83-2.1-.16-.28-.69-.4-1.08-.48-1.17-.26-2.38-.4-3.53-.73a20.81,20.81,0,0,1-2.93-1.14c-1.4-.64-2.76-1.39-4.18-2a.59.59,0,0,0-.34,0c-.73-.51-1.47-1-2.25-1.44a.48.48,0,0,0-.29-.06,17,17,0,0,0-2.9-1.94A30.06,30.06,0,0,0,22,84.54c.2,1.07.1,2.45.69,3.39a59.11,59.11,0,0,0,5.18,7,31.66,31.66,0,0,0,5,4.64c1.58,1.17,3.59,1.77,5.14,3,1.86,1.45,3.81,1.41,5.85,1a5.55,5.55,0,0,0-.39,1.62c-1.06,1-2.09,2-3.1,3a3.43,3.43,0,0,0-.73,4,3.41,3.41,0,0,1,.45,1.1c.14,2.84.11,5.7.38,8.53a51.91,51.91,0,0,0,1.2,6.64c.09.41.87,1,1.21,1a3.56,3.56,0,0,0,1.47-1.13,2.85,2.85,0,0,0,.41-.88l.52,0A18,18,0,0,1,46,130.2c.17,1.76,2,3.62,4.06,2.88a3,3,0,0,1,2.1.39,5.77,5.77,0,0,0,3.74,1,15.73,15.73,0,0,1,5.26.35,12.8,12.8,0,0,0,4.2.4c2.23-.21,4.57-.69,6.62.85.81.61,1.68,1.15,2.55,1.74.29-.23.67-.38.74-.62.76-2.4,3.23-2.61,4.89-3.83a5.44,5.44,0,0,1,2.1-.79c1.36-.28,2.74-.44,4.11-.66,2.44-.38,4.88-1.1,7.31-1.06A64.37,64.37,0,0,1,102,132a6.25,6.25,0,0,0,4.91-.91c2.36-1.93,4.28-4.37,6.9-6,1.24-.79,2.38-1.76,4-1.9,0,.27.05.43,0,.52-1.82,2.69-3.66,5.37-5.47,8.07a10,10,0,0,0-1.1,2c-.51,1.37,1,1,1.47,1.61,1.41,1.76,2.88,3.49,4.34,5.21a6.37,6.37,0,0,1,1.8,4.15,2.28,2.28,0,0,0,2,2.46c.66.11.93.7.41,1.34a8.55,8.55,0,0,0-1,1.1,4.28,4.28,0,0,0-.59,1.68,15.9,15.9,0,0,0,.23,2.17c.07.93.08,1.87.12,2.8s.1,1.69.09,2.53c0,1.34-.1,2.67-.1,4,0,1,.34,1.52,1.53,1.47a2.75,2.75,0,0,1,2.83,2.36c.06,1.65.2,3.3.14,5a41,41,0,0,0,1.08,10,4,4,0,0,1-.66,2.8,4.79,4.79,0,0,0-1,4c.68,3.36,1.45,6.71,2.1,10.08.45,2.38.35,4.9,2.13,6.88.24.27.23.75.35,1.13.25.8.51,1.61.78,2.4a11.13,11.13,0,0,1,1,3.13c0,2.79,1.6,4.87,2.86,7.11.15.27.32.54.46.77,1.49-1.11,2-1.08,2.08,0,.23,2.21.3,4.44.52,6.66.36,3.81.79,7.6,1.17,11.41a8.53,8.53,0,0,1,0,1.85c-.35,2.86-1,5.72-1,8.59a43.8,43.8,0,0,0,.84,7.51,16.11,16.11,0,0,0,1.09,4c.71,1.62,1.79,3.07,2.53,4.68.87,1.88,1.81,3.77,1.71,6a2,2,0,0,0,.42,1.23,13.76,13.76,0,0,1,3.19,5.94,3.6,3.6,0,0,0,.66,1.16,9.69,9.69,0,0,1,1.86,6.17c-.06.84-.39,1.66-.47,2.5-.31,3-.62,5.92-.82,8.89a2,2,0,0,0,1.34,2.23,1.11,1.11,0,0,1,.62.46c.86,1.79,2.16,3.53,2.4,5.41a11.1,11.1,0,0,1-1,5.9,13.3,13.3,0,0,0-1.47,6.33c0,1.87-1.22,2.7-3.08,2.39-.61-.1-1.31.37-2,.6a11,11,0,0,1-1.36.5,23.9,23.9,0,0,0-3.79.73c-.69.26-1.15.9-2,.28-.15-.12-.77.07-.9.28-.8,1.25-1.66.78-2.48.13a6.88,6.88,0,0,0-4.05-1.56c-.61,0-1.34.27-1.83,0a12.27,12.27,0,0,0-5.49-.94,8.82,8.82,0,0,1-2.58-.66,8.58,8.58,0,0,0-4.95-.47,9.06,9.06,0,0,0,.38,1.34c.47,1,1,2,1.49,3s.1,1.37-.84,1.15a3.81,3.81,0,0,0-3.47,1,8.18,8.18,0,0,1-4.61,1.8,5.3,5.3,0,0,0-3.29,1.16c-.6.17-1.2.3-1.81.42a1.92,1.92,0,0,0-2.1-.16c-1.38.43-2.73,1.26-4.17.11a1.11,1.11,0,0,0-.79,0,2.36,2.36,0,0,1-2.65-1.3c-.74-2.63-4-2.48-4.9-4.76-.07-.17-.58-.24-.88-.23-1.1,0-2.21.24-3.31.17a38.42,38.42,0,0,0-10.66.63c-2.13.47-4.25,1-6.39,1.34-1.93.35-3.87.62-5.82.83-.4,0-1.11-.23-1.22-.53-.5-1.41-.78-2.89-1.26-4.31-.2-.59-.61-1.41-1.07-1.53a6.29,6.29,0,0,0-2.46.22A87.18,87.18,0,0,1,45.93,320c-4.19.28-8.41.11-12.62.1a6,6,0,0,1-2.36-.32c-1.26-.56-1.46.61-2.1,1.06.46.44.9.9,1.4,1.3.19.15.53.09.76.21,2.38,1.16,4.75,2.34,7.12,3.51A40.76,40.76,0,0,0,43,328.17c1.63.55,3.22,1,4.38,2.35.22.25.42.52.63.79v1.5a2.84,2.84,0,0,0-.36.89,2.06,2.06,0,0,0,.25,1c1.12,2.07,2.24,4.15,3.44,6.17,1.49,2.52,3.08,5,4.56,7.5.15.26-.1.75-.17,1.13s-.26.8-.12,1a1.19,1.19,0,0,0,1,.49c1.56-.24,3.1-.6,4.65-.89l7.58-1.43c.82-.15,1.66-.25,2.47-.45,2.26-.56,4.58-.66,6.84-1.55,2.51-1,5.37-1.07,8.08-1.57,3.16-.59,6.31-1.3,9.49-1.77,2.45-.36,4.95-.31,7.4-.62,4.62-.59,9.22-1.42,13.85-1.91a59,59,0,0,1,6.81.12c1.69,0,2.64.72,2.71,2.5,0,.18.78.57,1,.46a28.82,28.82,0,0,1,10.24-3.13c2.92-.25,5.83-.77,8.75-.93,1.05-.06,2.66.29,3.11,1a3.34,3.34,0,0,0,2.83,1.83c.93.09,1.85.22,2.77.39a2,2,0,0,1,1.15.47c.86,1.07,1.58,2.26,2.44,3.34,1.38,1.72,2.91,3.1,5.42,2.93a4.26,4.26,0,0,1,2.76,1,6,6,0,0,0,5.29,1.61c1.23-.23,2.47-.37,3.69-.59a28.93,28.93,0,0,0,9-3.21c1.27-.69,2.4-2,4-1.67a49.37,49.37,0,0,1,5.84,1.58,8,8,0,0,1,3.25,1.75,2.26,2.26,0,0,0,2.22.8,56.85,56.85,0,0,0,7.23-1.41,17.05,17.05,0,0,1,7.24-.19c2,.25,4,.68,6,1.12s3.87.93,5.78,1.5c1.34.4,2.61,1.35,3.93,1.39a52.26,52.26,0,0,0,10-.41c2.56-.42,4.9.18,7.28.5a28.65,28.65,0,0,1,5.68,1.86c1,.38,2,1,3.08,1.27,2.22.59,4.48,1,6.71,1.53s4.62,1,7-.39a11.41,11.41,0,0,1,4.08-1.11,46.27,46.27,0,0,1,5.18-.5,4.2,4.2,0,0,1,2.09.39c2.25,1.2,4.66,1.09,7.06,1a5.91,5.91,0,0,0,2.85-.52c1.89-1.21,3.86-.78,5.69-.36a13.93,13.93,0,0,0,8.58-.71c1-.39,1.75-1.34,2.72-1.54,2.7-.56,4.94-2.35,7.79-2.55a13.79,13.79,0,0,1,7.33,1.09,8.3,8.3,0,0,0,3,1.25,7.68,7.68,0,0,1,3.53,1,5.79,5.79,0,0,0,2.18.5,22.31,22.31,0,0,0,3.73.1c2.38-.2,4.88.45,7.09-1,.1-.06.26,0,.4,0,2.13,0,4.26-.05,6.39,0,2.72.06,5.44.18,8.16.29a4.38,4.38,0,0,1,1,.29,14.41,14.41,0,0,0,2.49.73c1.55.17,3.13.13,4.69.26q3.61.3,7.21.72c2.88.34,5.08-1.87,7.83-2a3,3,0,0,0,1.5-.5,22.06,22.06,0,0,1,4-2.76c1.45-.65,2.12-.88,3.52,0a13.67,13.67,0,0,0,3.24,1.42c2.36.7,4.89.23,7.27,1.19,2.17.88,4.48.11,6.73-.18,2-.27,4.08-1.23,5.94.5.27.25.8.22,1.26.33l.33-1.25c.69-.06,1.39-.23,1.63-.66a2,2,0,0,1,2.5-1.15,6.05,6.05,0,0,0,4.16-.25,39.31,39.31,0,0,1,4.86-1.69c.84.47,1.59,1.25,2.16,1.14a45.61,45.61,0,0,0,6.9-1.89c2.48-.92,4.83-2.19,7.27-3.23,1.38-.59,2.84-1,4.25-1.54s2.59-1.07,3.87-1.65c.16-.07.27-.34.32-.54.17-.61.3-1.23.39-1.61C452,340.63,450.5,340.32,449,340.22Zm-3,4c-2.52,1.1-5.07,2.16-7.67,3-3.06,1-6.06,2.55-9.48,1.91a3.09,3.09,0,0,0-1,.17c-2.13.4-4.15,1.42-6.42,1.08a26.82,26.82,0,0,0-3.6-.26,1.57,1.57,0,0,0-1.09.55c-.67.85-1.25,1.78-1.89,2.73a7.14,7.14,0,0,0-2-1.16,9.13,9.13,0,0,0-2.49.17c-2.56.22-5.11.45-7.67.66a2.8,2.8,0,0,1-.92-.1c-1.82-.48-3.63-1-5.44-1.46s-3.71-1.1-5.58-1.6a27,27,0,0,0-3.5-.76c-1.09-.14-1.52.35-.82,1.34-1.15.6-2.24,1.09-3.26,1.72a5.35,5.35,0,0,1-3.59,1.17,2.11,2.11,0,0,0-2.29,1,1.36,1.36,0,0,1-1,.52,27.35,27.35,0,0,1-3.48,0c-2-.14-4.08-.46-6.13-.56-4.75-.22-9.51-.25-14.26-.56-2.63-.17-5.24-.77-7.87-1.11a2.68,2.68,0,0,0-1.4.4c-1.1.56-2.13,1.59-3.25,1.68a23,23,0,0,1-5.56-.5c-2.06-.34-4.08-.91-6.13-1.29-1.06-.2-2.19,0-3.21-.33a26.21,26.21,0,0,1-3.28-1.46c-3.66-1.61-7.14-.88-10.54.85-.19.1-.39.19-.59.27-1.16.47-2.31,1-3.47,1.39-1.51.56-3,1.51-4.55,1.52a46.26,46.26,0,0,1-8.51-.89c-1.12-.2-2,0-2.4.79a2.3,2.3,0,0,1-2.61,1.16c-1.68-.21-3.34-.55-5-.89a30.14,30.14,0,0,0-4.1-.91c-2.14-.13-4.29,0-6.44.09a2,2,0,0,0-.75.18c-1.24.57-2.44,1.26-3.73,1.69a6.71,6.71,0,0,1-3,.39c-1.9-.27-3.76-.82-5.64-1.24-.91-.2-1.84-.31-2.73-.57-2.5-.75-4.62-2.43-7.32-2.76s-5.21-1.11-7.84-1.53a7.24,7.24,0,0,0-2.54.45,12.24,12.24,0,0,1-1.25.43c-2.69.3-5.43-.77-8.11.31-.24.1-.65-.18-1-.34a22.25,22.25,0,0,0-7.16-2.65c-2-.3-3.91-.92-5.89-1.15a32.48,32.48,0,0,0-6.87-.28,72.7,72.7,0,0,0-7.67,1.6,9.05,9.05,0,0,1-1.46.15c-.54,0-1.07,0-1.64,0a9.68,9.68,0,0,0-1.54-1.17,36.14,36.14,0,0,0-6.4-2.94c-1.3-.36-3.42-.12-4.25.74a10.59,10.59,0,0,1-5,3c-2.94.71-5.85,2-9,1.6a2.14,2.14,0,0,0-1,.18c-1.53.67-2.59,0-3.43-1.19a3.3,3.3,0,0,0-2.9-1.61,19.09,19.09,0,0,1-3.21-.18,2.52,2.52,0,0,1-1.45-.88c-.83-1.09-1.5-2.3-2.29-3.42s-1.76-2.31-3.71-2c-1.37.24-3.09.25-3.84-1.66-.17-.43-.94-.7-1.49-.89a7.46,7.46,0,0,0-4.27-.18c-2.3.48-4.76.15-7.15.23-3.42.12-6.58,1.37-10,2.4.24-1.16-.34-1.68-1.42-1.9a37.78,37.78,0,0,0-13.18,0c-2.69.39-5.37.89-8.07,1.23-3.31.41-6.65.58-9.94,1.08-4.73.72-9.42,1.66-14.13,2.47-2.79.48-5.59.87-8.37,1.34-2.35.4-4.68.85-7,1.28-1,.18-2,.34-3,.55-.43.09-1,.16-1.23.45-1,1.32-2.42.89-3.71,1.06-.92.12-1.24-.44-1.51-1.17a31.39,31.39,0,0,0-1.69-4.17c-1.6-2.92-3.35-5.75-5-8.62-.25-.42-.48-.86-.73-1.28v-2.34a.45.45,0,0,0-.45-.43,1.59,1.59,0,0,0-.46-.78c-1-.72-1.59-1.81-2.94-2.29a66.82,66.82,0,0,1-7.46-3.52c-1.24-.62-2.43-1.33-3.64-2a1.76,1.76,0,0,1,1.21-.7c2.63-.07,5.26-.08,7.89-.13a31.42,31.42,0,0,0,4.41-.2c2.32-.38,4.59-1,6.9-1.43a2,2,0,0,1,1.65.49A18.6,18.6,0,0,1,58,324.13,2.53,2.53,0,0,0,60.11,326a11.86,11.86,0,0,0,6.19-.28,48.68,48.68,0,0,1,6.1-1.39c2.43-.48,4.88-.92,7.33-1.33a6.35,6.35,0,0,1,1.3.12c1.64.09,3.37.5,4.9.12a1.92,1.92,0,0,1,2.25.68c.36.38.72,1,1.11,1,1.39.07,1.81,1.12,2.42,2,.32.47.73.88,1.05,1.34.72,1,2,.73,2.84,1.22,2.31,1.35,4.09.21,6.1-.55a.53.53,0,0,0,.28,0c.53-.07,1-.17,1.56-.28a1,1,0,0,0,.12.17c.18.21.93.06,1.36-.09.7-.25,1.31-.74,2-1,1.54-.5,3.11-.89,4.66-1.34,1.4-.4,2.42-2.24,4.23-1.11.08.05.27,0,.38-.06,1.35-.71,1.71-1.77,1.35-3.46a7.14,7.14,0,0,1,.06-1.76c.65,0,1.3.05,1.93.16,1.25.21,2.48.51,3.74.7.79.12,1.6,0,2.39.16,1,.14,1.89.48,2.85.55,1.52.11,3.06.09,4.27,1.21a3.64,3.64,0,0,0,3.09,1c1.24-.15,2.49-.26,3.74-.37.41,0,.82,0,1.23,0l-.43-1.43c.8-.1,1.55-.2,2.31-.27.39,0,.91.14,1.17-.05,1.58-1.2,3.58-.82,5.31-1.46.66-.25.93-.47,1-1.16a23.35,23.35,0,0,1,.37-4.65c.66-2.67,1.66-5.25,2.4-7.9a6,6,0,0,0,.3-3.2,23.27,23.27,0,0,0-2.32-4.41c-.27-.46-.73-1.07-1.16-1.12-.84-.1-1.05-.42-1.06-1.18,0-.6-.45-1.5-.2-1.74,1-.95.56-2.08.66-3.13.16-1.59-.18-3.4.46-4.75,1.21-2.53-.19-4.6-.66-6.79a29.65,29.65,0,0,0-2.06-5.06c-.61-1.44-1.05-3.08-2.56-3.79-1.07-.5-1.11-1.1-.83-2a1.9,1.9,0,0,0,.11-.78c-.42-3-1.95-5.56-3.41-8.14a7.78,7.78,0,0,1-.81-1.48,30.25,30.25,0,0,1-1-3.86,54.2,54.2,0,0,1-.83-6.83,32.62,32.62,0,0,1,.66-4.82,26.45,26.45,0,0,0,.2-3.2,21.87,21.87,0,0,0-.22-2.9c-.12-.9-.42-1.77-.5-2.67s0-2.05,0-3.08c-.07-2.18-.29-4.36-.25-6.53.06-3,.09-6-1.9-8.47l-1.86,1.15c0-1.79.16-3.4-2-3.11-.11-1.23-.2-2.35-.31-3.46a8.19,8.19,0,0,0-.27-1.77c-.42-1.25-.89-2.49-1.42-3.7a23.56,23.56,0,0,1-1.63-3.46c-.51-2.07-.68-4.22-1.08-6.32-.49-2.57-1.11-5.11-1.58-7.68-.15-.8-.35-2.09.06-2.41,1.44-1.12,1-2.52.85-3.81a70.06,70.06,0,0,1-.82-12.64,17.53,17.53,0,0,1-.12-2.11c.4-2.13.48-2.17-1.47-3.22a4.59,4.59,0,0,1-2.7-4.93,15.52,15.52,0,0,0,0-3.3,13.84,13.84,0,0,1,.72-6.24c.44-1.2.95-2.38,1.51-3.77a7,7,0,0,0-1.27-.1c-1,.14-1.54-.17-2-1.22-.57-1.28-.35-2.74-1.46-3.93-1.86-2-3.26-4.43-5.11-6.44-.76-.82-.85-1.4-.43-2.17a21.91,21.91,0,0,1,1.78-2.63c1.37-1.8,2.79-3.58,4.19-5.35.63-.8,1.28-1.58,2-2.45-1.33-1.16,1-1.79.72-3.16-.44.22-.78.35-1.08.55a41.24,41.24,0,0,1-4.49,2.88,29,29,0,0,0-9.78,7.45c-1.23,1.44-2.31,2.43-4.18,1.13-.2-.14-.52-.1-.78-.14A47.47,47.47,0,0,1,94.88,129a6.25,6.25,0,0,0-4.23.39,16.28,16.28,0,0,1-2.42.64,45.13,45.13,0,0,0-6.47,1,29.52,29.52,0,0,0-6,3c-.74.44-1.16,1.41-1.78,2.22a8,8,0,0,1-.8-.59,7.65,7.65,0,0,0-6.06-1.94,35.6,35.6,0,0,1-4.68-.05,58.39,58.39,0,0,1-6.06-.8,14.91,14.91,0,0,1-3.83-1.25,3,3,0,0,0-2.92-.19c-.91.5-1.36.14-1.66-.61A32.06,32.06,0,0,0,46.53,127c-.41-.73-1.32-1.18-2-1.76-.39.55-.79,1.09-1.17,1.64a7.75,7.75,0,0,0-.39.7,1.31,1.31,0,0,1-.41-.87c-.09-.79.1-1.85-.33-2.31-.78-.82-.59-1.55-.49-2.44a14.7,14.7,0,0,0-.05-2.27c-.08-1.78-.16-3.56-.26-5.34a6.3,6.3,0,0,0-.25-2.16,3.51,3.51,0,0,1,.67-4,10.51,10.51,0,0,1,1.85-1.59.49.49,0,0,0,.73-.37c0-.05,0-.11,0-.17l.35-.26c.46-.35.95-.75.32-1.24a.71.71,0,0,0-.5,0,2.56,2.56,0,0,1,.67-1.29,2.14,2.14,0,0,0,1.21-.93h-.4a.59.59,0,0,0-.71-.27,2.75,2.75,0,0,0-.51.29,29.63,29.63,0,0,1-3.79-.08,6.46,6.46,0,0,1-2.81-1.18c-1.05-.73-1.84-1.85-2.91-2.52a5.75,5.75,0,0,0-3.25-1.05,1.61,1.61,0,0,1-1.85-.75c-.82-1.26-1.59-2.55-2.46-3.77-1.15-1.63-2.39-3.19-3.55-4.81a11,11,0,0,1-.75-1.48c2-.21,3.35.89,4.85,1.57a.43.43,0,0,0,.24.37c.58.33,1.14.68,1.69,1.05L30,89.8l1.24.65.22.15a.52.52,0,0,0,.26.1L34.32,92a19.72,19.72,0,0,0,3.19,1.5c1.23.36,2.55.37,3.81.63.71.15,1.91.39,2,.77.36,1.81,1.74,1.76,3,1.84a15.57,15.57,0,0,1,10.5,5.15,8.24,8.24,0,0,0,2.54,1.93.48.48,0,0,0,.61.54,2.19,2.19,0,0,1,2,.39l.44.5a2.25,2.25,0,0,1,.28.57.48.48,0,0,0,.49.32,15.59,15.59,0,0,0,2.25,2.25c1,.74,1.51,1.4,1.17,2.66l2.18.43c-.35-1.71.39-2.25,1.75-2.2a.86.86,0,0,0,.38-.12L77.22,106c1.21-.61,2.4-1.28,3.64-1.82,1.68-.74,3.4-.31,5.13-.1.88.11,1.77-.14,2.18,1,.11.31.81.5,1.27.57,1.72.25,1.73.22.84,2.08,1.65-.43,3.06-.72,4.41-1.17,1.7-.58,3.31-1.49,5-1.92,2.88-.72,5.82-1.18,8.75-1.72,1.06-.2,1.19-.78.55-1.46a2.09,2.09,0,0,0-.2-.17l.26-.13,1.37-.7c1.91.14,3.82.28,5.72.44.11,0,.16.31.29.38.44.25.92.69,1.35.65,2.64-.26,5.26-.63,7.94-1,.14,1.27.31,2.54.43,3.81a5.53,5.53,0,0,1,0,2c-.27.94.22,1.26.9,1.46a30.36,30.36,0,0,0,3.32.85c3.28.59,6.09,2.24,9,3.82a6.16,6.16,0,0,0,1.2.47v0c-.18.54.78.78,1,.25l.23.07.32-.62-.25-.19a11.26,11.26,0,0,1,.69-1.39c.2.11.45.22.74.4-.52-2.48-.41-2.53,1.7-2.84a22.16,22.16,0,0,0,4-1c3.15-1.09,6.27-2.26,9.4-3.39,2-.73,4.06-1.48,6.1-2.16,2.55-.85,5-2.12,7.82-1.92a3.08,3.08,0,0,0,1.88-.4,2,2,0,0,1,2.8.21A4.49,4.49,0,0,0,181,101.5a1.68,1.68,0,0,1,1,0,8.31,8.31,0,0,0,6.52,1,3.72,3.72,0,0,1,1.18.06,21.79,21.79,0,0,0,3,.4c2,0,4-.36,6-.27a18.4,18.4,0,0,1,5.48.91,7.53,7.53,0,0,0,4.91.08c2.35-.66,4.7-1.38,7.2-.71a21.8,21.8,0,0,0,4.25.93c.81.05,1.46,0,2,.69,1.9,2.35,4.51,3.78,7,5.4a.55.55,0,0,0,.62.6.62.62,0,0,1,.3,0l.19.13h0c.23.26.24.78.35,1.11a1.24,1.24,0,0,0,.29.45l-.07.1c.3.18.62.54.9.52,1.64-.12,3.28-.33,4.92-.5a7.79,7.79,0,0,1,1.72-.1,3.72,3.72,0,0,1,1.11.55,4.21,4.21,0,0,1-.58,1c-1,.92-2,1.82-2.94,2.72a.47.47,0,0,0-.39,0,14.49,14.49,0,0,0-3.62,2.8.39.39,0,0,0,0,.51l-.88.64a6.85,6.85,0,0,0-2.36-.75c-1.73.15-3.45.33-5.21.34s-3.71.77-5.41-.56a.88.88,0,0,0-.77-.06c-1.09.55-2.28.11-3.3.32-1.66.33-2.47-.47-3.39-1.53-2,1.19-4.18,2.14-4.92,4.58l-1.93.18,2,2.18a8.85,8.85,0,0,1-1.71.38,14.8,14.8,0,0,0-3.06-.12c-4.7,1.1-9-.53-13.38-1.75-2.66-.74-5.28-1.7-8.09-.81-.4.13-1,.35-1.08.62a1.37,1.37,0,0,0,0,.35,4.57,4.57,0,0,1-1.34,0l-.07,0,0,0-.33-.05a.43.43,0,0,0-.37.78c-1.93,2.29-2.47,5.64-5.07,7.4l-1-.53c-.7.55-1.21,1.28-1.8,1.36-2.59.36-5.21.53-7.83.75-.34,0-.87,0-1-.16-.9-1.29-2.32-1.36-3.64-1.68-2.47-.59-4.94-1.14-7.41-1.71-1.11-.25-2.24-.47-3.34-.76a16.65,16.65,0,0,1-1.72-.65l-.27.32a5.85,5.85,0,0,1,.3,1.19,3,3,0,0,1-.14,1.6c-2.13,3.47-4.33,6.89-6.57,10.42,1.5,1.89,3,3.76,5.47,4.6a6.32,6.32,0,0,1,2.47,2.26c1.05,1.35,1.93,2.84,2.89,4.26.35.52.74,1,1.08,1.52,1.25,1.9,2,4.17,4.1,5.48.23.14.19.8.17,1.21s-.32.56-.33.85c-.13,2.67-.26,5.34-.31,8,0,.95.23,1.9.26,2.85a45.41,45.41,0,0,0,.13,5.57c.43,2.68,1.39,5.27,1.75,8,.26,1.91.65,3.37,2.71,3.9.22.06.52.81.46.86-1.55,1.34-1,3-.91,4.68.05.8,0,1.6,0,2.41s0,1.82.1,2.72c0,.57.25,1.13.34,1.69.53,3.21,1,6.43,1.58,9.63.42,2.41,1,4.78,1.4,7.2a12.93,12.93,0,0,0,2.83,6.65c1.23,1.47,2.51,2.91,3.7,4.42a5.67,5.67,0,0,1,1.28,2.28,39,39,0,0,1,.29,4.66c-1.71.5-1.71.5-1.52,2.54a3.53,3.53,0,0,0,.1.53c.49,1.94,1.1,3.86,1.45,5.83.55,3.14.77,6.34,1.4,9.47.59,2.91,1.53,5.74,2.32,8.6.51,1.84,1,3.68,1.54,5.52s.66,4,2.73,5.13a1.31,1.31,0,0,1,.52,1.14c-.65,1.41.27,2.61.45,3.88a8,8,0,0,0,1.26,2.88c.63,1,1.14,1.86.13,3-.63.68-1.06,1.55-1.62,2.29-1.2,1.58-1.47,4.52-.22,5.45a66.12,66.12,0,0,0,5.81,3.7.46.46,0,0,0,.06.16,3.77,3.77,0,0,1,.57,1.41.62.62,0,0,0-.2.13.86.86,0,0,0,0,.81c.84,1.2,1.73,2.36,2.61,3.52a5.5,5.5,0,0,1,1.6,3.14c1-.26,1,.38,1.1,1.13.31,2.3,0,4.82,2.11,6.54a1.41,1.41,0,0,1,.07,2.23c-1.22,1.3-.72,2.86-.75,4.28,0,.79-.12,1-.76,1.35s-1.29.83-1.37,1.35c-.14.9,1.26,2.17,2,2.29,1.61.27,3.19.65,4.79,1a6.18,6.18,0,0,1,2.09.43,32.26,32.26,0,0,1,3,2.52l0,0c-.27.3.25.84.7.66l.1,0,.09.07s0-.07,0-.11a8.37,8.37,0,0,1,1.53-.4,7,7,0,0,0,1,.16c2.09.07,4.17.14,6.26.16a27.8,27.8,0,0,1,4.8,0c2,.38,4-.3,6,.83a67.89,67.89,0,0,0,8.23,3.37.29.29,0,0,0,.13,0l.31,0a3.22,3.22,0,0,0,1.8,2,.49.49,0,0,0,.21.06.53.53,0,0,0,.29.23c1.53.33,3,1.15,4.68.56,1.87-.65,3.83-1,5.74-1.54a14.09,14.09,0,0,0,4.11-1.35,13.09,13.09,0,0,1,4.78-1.62,24.24,24.24,0,0,1,4.46-.08c2.4-.07,4.8-.15,7.2-.3,1.33-.09,4,1.8,4.4,3.14a1,1,0,0,0,.51.65c1.51.53,3,1,4.55,1.52,1.92.7,3.76,1.66,5.72,2.17a13.93,13.93,0,0,1,5.78,2.74,3.28,3.28,0,0,0,5.22-.9c.33-.62.64-1,1.44-.83,2,.35,4,.53,5-1.76,1.25.58,2.38,1.2,3.57,1.63a40.9,40.9,0,0,0,4.59,1.35c2,.47,3.89,2.33,6.15.68.13-.09.42.06.64.08a32.86,32.86,0,0,0,3.58.18c1.37-.07,2.74-.45,4.11-.48,3.92-.08,7.85,0,11.77-.06.38,0,.9,0,1.1-.24,2.38-2.61,5.89-1.93,8.78-3a12.83,12.83,0,0,1,3.31-.37c.66-.06,1.53-.39,1.94-.1a12.28,12.28,0,0,0,4.59,2,40.44,40.44,0,0,0,5.39.58,41.48,41.48,0,0,1,5.91.73,2.91,2.91,0,0,0,2.32-.12,3.15,3.15,0,0,0,1.27-.47l.82-.48a1.43,1.43,0,0,0,.47-.08c.36-.14.69-.6,1-.56,2.37.27,4.36-.56,6.44-1.63,1.84-1,4.14-1,5.49-2.92a.44.44,0,0,1,.36-.12c1.53.26,3.06.48,4.57.83,2.86.66,5.68,1.45,8.54,2.11s5.48,1.12,8.22,1.72c3.31.72,6.66,1.32,9.89,2.29,2.61.79,5.58-.08,7.93,1.78.18.15.52.1.78.15,1.44.29,2.88.66,4.33.86a11.84,11.84,0,0,0,3.84.19c2.62-.53,4.11-1.3,4.36-4.09,0-.46.41-1.28.62-1.28a20.59,20.59,0,0,1,5.36.35c2.09.58,4,1.44,6.31,1a39.56,39.56,0,0,1,6.32-.07A33.83,33.83,0,0,1,446,344.17Z" transform="translate(-21.97 -84.54)"/><path d="M452.65,241.73a3.45,3.45,0,0,0-1.05-2.4c-1.49-.93-3-1.65-2.68-3.79a1.17,1.17,0,0,0-.15-.5c-.42-1.13-.88-2.24-1.25-3.38-.31-1-.48-2-.75-2.93a4.6,4.6,0,0,0-.62-1.62c-.54-.68-.79-1.17-.14-2,.85-1.06.37-3.29-.84-4.13a2.44,2.44,0,0,0-1.69-.5c-1.74.43-3.43,1.51-5-.37a3.86,3.86,0,0,0-1.55-.88,2,2,0,0,0-2.47.24c-.56.58-1.22,1-1.82,1.59a1.14,1.14,0,0,1-1.84,0,2.27,2.27,0,0,0-1.39-.41,7,7,0,0,0-2,.15,24.42,24.42,0,0,0-2.55.86,4.26,4.26,0,0,0-.59.29c-.1-.79-.21-1.52-.29-2.26A1.69,1.69,0,0,1,424,219a20.66,20.66,0,0,0,1-3.19c.24-1.83,1.51-3.89-.85-5.34-.15-.09-.16-.49-.17-.75a19.75,19.75,0,0,1,0-2.49,4.63,4.63,0,0,1,.53-2.26,7.51,7.51,0,0,0,1.23-4.44,1.54,1.54,0,0,0-.41-1.06,5.31,5.31,0,0,1-1.27-5.19c.46-2.25,1-4.49,1.45-6.75,0-.23-.18-.57-.37-.79a13.22,13.22,0,0,1-1.54-1.84,3.28,3.28,0,0,0-2.1-1.9c-.21-.05-.45-.72-.36-1a40.33,40.33,0,0,0,1.53-4.1,26.54,26.54,0,0,0,.58-5.4c0-1.38-.54-2.76-.54-4.14,0-3,.23-6.06.35-9.09a6.47,6.47,0,0,1,.09-2.23c.72-1.6.17-2.72-1-3.81-.92-.89-1.64-1.81-1-3.26.62-1.3.34-1.69-1-2.22-.27-.1-.44-.46-.71-.55a3.6,3.6,0,0,0-1.59-.35c-.59.08-1.12.58-1.72.7a3,3,0,0,1-1.84-.05,25.93,25.93,0,0,1-3.74-2.36,4.22,4.22,0,0,1-1.36-1.81,2,2,0,0,0-1.64-1.49,8,8,0,0,1-2.3-1c-.93-.55-1.8-1.21-2.64-1.79-.39-1-.78-2-1.2-3-.17-.41-.41-.79-.62-1.18a5.37,5.37,0,0,0-1.11,1.2c-.39.83-.71,1.52-1.76,1.82a1.93,1.93,0,0,0-.83,1.72,11.52,11.52,0,0,0,1.84,2.56c1.35,1.7,2.79,3.34,4.07,5.1.77,1.05,1.57,2.2,1.06,3.68a12.08,12.08,0,0,0-.55,1.85c-.19,1.1-.24,2.22-.45,3.32a33.63,33.63,0,0,0-.3,12.89,4.53,4.53,0,0,1,.13,1.6,8,8,0,0,0,1.18,5.49,1.48,1.48,0,0,1-.28,2,16.44,16.44,0,0,0-1.54,2.29,11.07,11.07,0,0,1-.88,1.42c-1,1.11-1.63,5.52-.94,6.79.9,1.65,2.54,3.1,1.43,5.3-.06.11.08.34.16.49.83,1.54.25,2.84-.52,4.23-.64,1.14-1.44,2.5-1.32,3.69.29,2.94,1.92,5.5,3.52,7.9a10.19,10.19,0,0,1,1.12,2.69c.67,2,.69,4.32,2.73,5.69.23.16.24.66.35,1l-.27.27a15.49,15.49,0,0,1-1.76-1c-1.21-.87-2.32-1.91-3.58-2.7s-2.32-.37-2.86,1.12a1.68,1.68,0,0,1-.76,1c-1.1.39-1.72,2-3.27,1.27-.11-.05-.37.21-.56.33l-1.8,1.17c-1.49,1-2,.66-2.55-1-.85-2.45-1-5.4-4.37-6.22a3.65,3.65,0,0,0-4.06,1.4,2.08,2.08,0,0,0,0,2.64,8,8,0,0,1,1.17,2.46c.58,1.61,1,3.26,1.61,4.87.63,1.8,1.28,3.59,2,5.35.41,1,1,1.9,1.45,2.88s1.63,1.63,2.27,2.45c1.46,1.9,3.37.92,4.88,1.52l.85-2.63c.63.28,1.26.35,1.47.69A3.24,3.24,0,0,0,401,237a25.25,25.25,0,0,1,2.63.14,2.74,2.74,0,0,1,1,.25,5,5,0,0,1,1.3.87c.57.59,1.37,1.2,1.52,1.92.44,2.21.61,4.48.9,6.72.21,1.65.34,3.33.68,5,.55,2.68,1.24,5.33,1.89,8,.17.69.42,1.35.68,2.2.92-.8,1.1-1.41.64-2.21-.1-.18.07-.53.11-.79.19.06.49.05.56.18.54.94,1.34,1.76.92,3a18.34,18.34,0,0,0-.82,3.78c-.34,3.46-.6,6.94-.83,10.41a2.15,2.15,0,0,0,.44,1.43c1.24,1.4,2.07,2.8,1.42,4.81a19.15,19.15,0,0,0-.36,3.31,11.51,11.51,0,0,1-.47,1.63h-.44a5.35,5.35,0,0,0-.63-1.35,4.66,4.66,0,0,0-1.19-.75,8.25,8.25,0,0,0-.26,1.26c0,.36.14.74.14,1.1a21.07,21.07,0,0,0-.05,3.4c.33,2.06.88,4.08,1.34,6.12.15.65.29,1.3.47,1.95.28,1-.64,1.53-.93,2.29a14.2,14.2,0,0,0-1,3.74c-.14,1.66-.42,3.59.28,4.94.6,1.16,1.36,2.33,1.85,3.57a45.12,45.12,0,0,1,1.86,5.62c.33,1.33.15,2.79.52,4.1.21.73,1.1,1.26,1.68,1.87.36-.48.69-1,1.08-1.42a5.9,5.9,0,0,1,.88-.69l.35.22c-.16,1.07-.26,2.16-.5,3.21s.65,2.69,1.78,2.62c1.54-.1,3.07-.41,4.6-.66,1.12-.18,2.1-.9,3.4-.09.66.41,1.82,1.08,2.86.26.06,0,.55.3.68.55a5.34,5.34,0,0,1,.31,1.2c.5-.25,1.28-.38,1.46-.78.61-1.34,1.57-.73,2.39-.56,3.17.67,6.35,1.55,9-1.34a1.63,1.63,0,0,0,.2-.3.33.33,0,0,0,.17-.35v0a.61.61,0,0,0,0-.45l-.12-.16a21.36,21.36,0,0,0-.52-2.49,2,2,0,0,0-.78-2.3c-.94-1-2-1.73-2-3.27,0-.05-.22-.11-.29-.15a8,8,0,0,1-1.55.84c-.81.23-1.3-.08-1.2-1a1.68,1.68,0,0,0-1.68-2c-1.38,0-1.46-.75-1.25-1.75a12.14,12.14,0,0,0,.47-5c-.29-1.49.67-3.2-.78-4.53,0,0,0-.18,0-.26.56-1.82-.49-3.84.71-5.6.16-.23.1-.61.13-.92a24.38,24.38,0,0,0,.33-3.57,37.49,37.49,0,0,0-.62-4.5,11.5,11.5,0,0,0-.53-1.81,2.82,2.82,0,0,0-.57-1.25,3.21,3.21,0,0,1-1.36-2.63c0-1.61-.67-3.15-.29-4.83.17-.72-.29-1.59-.52-2.65l-1.93,1.3c-.09-.1-.18-.15-.2-.22-.66-2,.55-4.27-1-6.13-.11-.13,0-.53.13-.77a14.22,14.22,0,0,0,.63-7.29c-.18-1.56-.43-3.11-.76-4.66a10,10,0,0,1,.83-5.6c.92-2.17,1.76-4.26,1.6-6.65-.07-1.07-.24-2-1.54-2.28-.83-.19-1.54-.77-1.25-1.75.53-1.82-.23-3.42-.76-5a33.36,33.36,0,0,0-1.46-3.24,7.21,7.21,0,0,1,4.55,1.81c1.39,1.25,2.56,1.22,3.39,0a4.79,4.79,0,0,1,5.12-1.78,3.34,3.34,0,0,1,1.27,1.06c1.31,1.59,2.48,3.3,3.89,4.79,1,1.07,2.35,1.82,3.44,2.82a2.31,2.31,0,0,0,2.81.4A2.49,2.49,0,0,0,452.65,241.73Zm-2.93.06c-1-.76-1.81-1.63-2.76-2.39-2.35-1.9-4.56-3.87-5.4-7-.11-.4-.84-.75-1.34-.86-.22,0-.58.56-.88.87s-.47.67-.7.66c-1.91-.06-3.23,1.13-4.69,2-.27.17-.67.42-.89.33a11.41,11.41,0,0,1-3.45-1.7,3.16,3.16,0,0,0-2.66-.79c-.93,0-1.38.42-1,1.36s1,2,1.45,3.06c1.2,2.61.7,5.44,1.09,8.29.21.11.57.45.92.45.86,0,1.56.06,1.46,1.18a6.71,6.71,0,0,1-.26,2.21c-.59,1.24-1.42,2.36-2.11,3.55-.11.2,0,.51,0,.77,0,1.25,0,2.49,0,3.74,0,.75,0,1.5.1,2.25.09,1.15.22,2.29.32,3.43a15.83,15.83,0,0,1,.13,2.14,44.49,44.49,0,0,1-.42,5.27c-.16.93-1,1.81.52,2.34.14,0,.11.63.12,1,.1,1.91.15,3.82.34,5.71,0,.37.64,1,1,1,1.38-.05,1.69.68,1.68,1.83a6.41,6.41,0,0,0,.12,2c.37,1.15.92,2.24,1.4,3.36.18.42.35.85.5,1.28.21.62.39,1.25.58,1.87a7.29,7.29,0,0,1,.35,4.34,53,53,0,0,0-1.05,6.37c0,.16.09.35.11.52.06.57.08,1.14.16,1.7a16.46,16.46,0,0,0,.34,1.73,6.28,6.28,0,0,1,.42,1.26c0,1.89,0,3.79,0,5.68,0,.09-.06.17-.06.26a19.74,19.74,0,0,0-.09,3c.13,1.14.37,2.28,2,2.36.34,0,.78.82.91,1.33.23.88.57,1.47,1.58,1.43a4.52,4.52,0,0,1,4.26,3.44,2,2,0,0,0,.28.61.32.32,0,0,0-.29.29,2.5,2.5,0,0,0,.28,1.49c-1.51,2-3.61,1.11-5.37.74a6.84,6.84,0,0,0-4.27.25c-.69.29-1.1.19-1.36-.51-.4-1.07-.9-1.08-1.57-.2a1.13,1.13,0,0,1-1.84.23c-.41-.36-.8-.75-1.19-1.11-1.3.31-2.59.7-3.9.91s-2.6.26-4,.39a26.77,26.77,0,0,0,0-2.81,8.55,8.55,0,0,0-.59-2.49c-.42-.94-1.12-1.22-2-.36a5.39,5.39,0,0,1-1.4.67c0-.63,0-1-.08-1.42-.2-1.77-.32-3.57-.68-5.3a7.73,7.73,0,0,0-1.28-2.27c-.92-1.45-1-3.2-1.94-4.73-.63-1-.23-3,.27-4.35a17.55,17.55,0,0,0,.25-10.45c-.14-.59-.1-1.56.26-1.85a4.39,4.39,0,0,0,1.51-3.19c.24-1.84.59-3.66.77-5.51s.87-3.66-.67-5.33a3.88,3.88,0,0,1-1-2.51c.2-3.55.66-7.09,1-10.63.19-2.28,1.12-4.61-.67-6.79-.77-.94-.83-2.45-2.33-2.82-.16,0-.33-.3-.37-.49-.42-1.76-.93-3.5-1.2-5.28-.2-1.33,0-2.71-.11-4a39.53,39.53,0,0,0-.91-5.72c-.28-1.1-.84-2.59-1.69-3a26.28,26.28,0,0,1-3-1.45,1.78,1.78,0,0,0-1.41.05c-1.68.75-2.88-.2-4.16-1-.6-.38-1.23-.71-2.12-1.23-.1-.08-.54-.65-.8-.58a1.8,1.8,0,0,0-1.1,1c-.27,1-.38,2-1.2,2.07-1.23-.8-2.07-1.34-2.89-1.9a2.06,2.06,0,0,1-.53-.56c-.36-.54-.71-1.09-1-1.65a10.43,10.43,0,0,1-.79-1.62c-.62-1.78-1.13-3.59-1.81-5.35-1-2.51-2-5-3-7.47a.82.82,0,0,1,.22-.75,2.43,2.43,0,0,1,1.27-.57c.87,0,2-.36,2.47.72.85,2.06,1.19,4.28,2.36,6.29.66,1.14,1.34,1.3,2,.72,1.43-1.21,3.26-.65,4.84-1.45s2.57-2.52,4.11-3.45c.08,0-.06-.38,0-.48.22-.27.64-.75.75-.7,1,.5,2.18.89,2.7,1.71,1.06,1.66,2.72,2.51,4.15,3.66a1.8,1.8,0,0,0,1.58.09c.25-.12.26-.91.26-1.4a11.81,11.81,0,0,1-.2-1.85c.22-1.41-.77-2-1.56-2.83s-2-2.22-2.05-3.37c-.06-2.68-1.9-4.36-2.92-6.47s-2.48-3.9-.94-6.28a2.84,2.84,0,0,0,.22-.77,15.51,15.51,0,0,1,.78-2.64,3,3,0,0,0,.15-2.92,1.2,1.2,0,0,1,0-1c.79-1.3.4-2.4-.29-3.62s-1.81-2.25-1.59-4a7,7,0,0,1,1.08-3.49c.83-1.16,1.26-2.6,2.11-3.75a2.93,2.93,0,0,0,.06-3.83,7.78,7.78,0,0,1-1-3.28c-.24-2.25-.16-4.53-.44-6.78a24.12,24.12,0,0,1,.63-9.35c.28-1.05.18-2.27,1.41-2.87a.67.67,0,0,0,.24-.59c-.37-1.55-.45-3.3-1.27-4.58a69.49,69.49,0,0,0-4.87-5.91c-.46-.56-1.07-1.3-1-1.91s.82-1.21,1.28-1.82c.3.35.63.68.9,1,.65.89.86,2.24,2.4,2.16.16,0,.43.22.5.4.51,1.3,1.57,1.5,2.79,1.6.44,0,1.23.6,1.21.85-.16,1.44.86,1.95,1.78,2.58a8,8,0,0,0,1,.72,27.77,27.77,0,0,0,4.88,2.14c.78.2,1.82-.63,2.81-1a6.53,6.53,0,0,0,.73.64c.36.25.77.43,1.16.64a4.5,4.5,0,0,1-.72,1.19c-.86.74-1.13,1.34,0,2.11a12.85,12.85,0,0,1,2.06,1.81c.2.22.16.72.14,1.08-.12,1.81-.26,3.63-.4,5.44,0,.35-.05.71-.06,1.06-.06,2.93-.18,5.86-.15,8.78,0,1.36.67,2.79.41,4.07a43.14,43.14,0,0,1-2.13,6.55c-.65,1.74-.45,2.43,1.32,3a4.62,4.62,0,0,1,2.91,3.34,6.42,6.42,0,0,1-.53,5,6.32,6.32,0,0,0,.24,6.86,3,3,0,0,1,.18,3.45,13.13,13.13,0,0,0-1.12,3,25.24,25.24,0,0,0-.1,4.16c0,.2.35.39.48.61a5.69,5.69,0,0,1,1,1.87,7.36,7.36,0,0,1-.25,2.65,23.17,23.17,0,0,0-1,6.91c.06.91.29,1.43,1.14,1.42a3.39,3.39,0,0,0,1.87-.51c1.93-1.42,3.38-1.55,5.44-.41a1.4,1.4,0,0,0,1.22,0,19.34,19.34,0,0,0,1.63-1.54c.33-.29.77-.74,1.12-.7a6.41,6.41,0,0,1,2.42.71c1.58.91,3,1.93,4.9.59a1.73,1.73,0,0,1,2.47.63c.21.34-.11,1.22-.44,1.67-.93,1.23-.24,2.41,0,3.59.06.32.67.51.93.84a3,3,0,0,1,.55,1.14c.21.9.28,1.84.49,2.74.31,1.31.66,2.62,1.05,3.91a5.2,5.2,0,0,0,.81,1.94c.68.78,1.65,1.31,2.36,2.07.26.29.13.94.18,1.43C450.41,241.92,450,242,449.72,241.79Z" transform="translate(-21.97 -84.54)"/><path d="M342.1,318.67c0-.33-.12-.68-.11-1a1.77,1.77,0,0,0-2.37-1.85,5.43,5.43,0,0,1-1.69.36,11,11,0,0,0-4.53,0c-.83.25-1.2-.2-.9-1.34a9.49,9.49,0,0,0,.2-4.69,27.63,27.63,0,0,0-2.63-5.29,3.7,3.7,0,0,0-1-1.45c-1.74-1.07-1.92-2.51-.29-3.79a2.6,2.6,0,0,0,1-2.85c-.43-1.81-1-3.57-1.51-5.37a8.94,8.94,0,0,1-.29-1.81c-.09-1.51-.07-3-.2-4.52-.1-1.09-.46-2.16-.53-3.26-.1-1.47.31-3-.11-4.39a18.73,18.73,0,0,0-2.49-4.29A3.35,3.35,0,0,0,323.4,272c-2-1-3.82-2-3-4.87.34-1.25-.12-2.72-.21-4.1a1.72,1.72,0,0,1,0-.66,4.22,4.22,0,0,0-.76-4.15c-1.1-1.45-2.37-2.8-2.26-4.83,0-.27-.26-.56-.37-.84a18.44,18.44,0,0,1-1.32-3.55c-.44-2.72-1.13-5.27-3.12-7.32-.16-.17-.11-.57-.11-.86,0-2.76.11-5.52.09-8.28,0-1.19-1-1.7-2.18-1.42a5.71,5.71,0,0,1-1.86-.08c-.34,0-.69-.27-1-.23a2,2,0,0,1-2.18-1.2c-.7-1.17-1.39-2.27-3-2.51a1.8,1.8,0,0,1-1.62-1.87c0-.24-.4-.65-.67-.7-.89-.16-1.79-.18-2.69-.26l-8.92-.73a4.66,4.66,0,0,0-.93.06c-2.79.35-5.58.83-8.39,1-2,.12-4-.3-6-.26a7.09,7.09,0,0,0-3.35.83,17,17,0,0,0-3,2.77c-.21.21-.24.6-.41.87-.35.58-.64,1.48-1.13,1.62s-1.29-.42-2-.61a18.6,18.6,0,0,0-3.67-.92c-.68-.05-1.41.6-2.13.87a7.19,7.19,0,0,1-2.48.76,6.71,6.71,0,0,1-2.22-.88,5.59,5.59,0,0,1-1.49.57,9.85,9.85,0,0,1-2.08-.29c.83,1.19.45,1.62-.55,1.9a11.26,11.26,0,0,0-3.42,1.31c-.73.51-2.31.47-2,2.07.16.72.26,1.45.42,2.18a3.1,3.1,0,0,1-2.42,3.16c-.63-1.6-1.3-3.06-1.79-4.58a11.7,11.7,0,0,1-.63-3.49c0-.51.73-1.05,1.2-1.51,1.78-1.75,3.07-3.68,2.42-6.29a17.37,17.37,0,0,0,2-.93,1,1,0,0,0,.31-.88c-.07-.27-.57-.69-.68-.64-.94.45-1.29-.15-2-.63a8.91,8.91,0,0,0-4-1.23,3.52,3.52,0,0,1-2.38-1.43c-1-1-1.81-2.21-3.3-2.54s-2.85-.58-4.51-.91c-.41.8-.84,1.74-1.36,2.63a1.13,1.13,0,0,1-.84.49,9.35,9.35,0,0,1-6.17-2.16c-.67-.61-1.21-1.14-1.83-.33-.52-.29-1.13-.8-1.3-.68a2.49,2.49,0,0,0-1,1.37c-.46,2.15-.8,4.33-1.2,6.5a1.79,1.79,0,0,1-.16.49c-.43.84-.1,1.93.79,2a35,35,0,0,0,3.91,0,1.47,1.47,0,0,1,.5.54,2.93,2.93,0,0,0-.41.92c-.21,1.08.08,2.42-.47,3.24-.92,1.39-.39,2.54-.07,3.79a15.8,15.8,0,0,0,.82,2.25c.64,1.47,1.53,2.84,1.62,4.51a1,1,0,0,0,.33.8l.19,1.52a.49.49,0,0,0,.38.4,1.22,1.22,0,0,0,.4.52c1.36.83,1.84,2.31,2.57,3.54a15.45,15.45,0,0,1,1.33,4q2.25,8.67,4.42,17.35a4.36,4.36,0,0,1,.33,2.08,23.68,23.68,0,0,1-2.08,5.19c-1.41,2.34-1.38,4.89-1.86,7.82,1.08-.32,2.17-.31,2.64-.84a39.07,39.07,0,0,0,2.59-3.38c0,.32.06.64.12,1a20.49,20.49,0,0,0-.61,3.19,14.87,14.87,0,0,0,.85,6.71c1.18,3,2.18,6.06,3.28,9.08a2.58,2.58,0,0,0,.49.63c1.43,1.77,3.16,3.42,2.28,6.06a1.72,1.72,0,0,0-.1.79c.28,1.65-1.36,3.51.54,5,.09.07,0,.34,0,.52.29,1.94-1.61,2.44-2.48,3.59a8.15,8.15,0,0,1-2.76,1.7c-.68.36-.88.75-.55,1.5A9,9,0,0,1,234,323c0,3.35,3.48,3.17,4.88,5.06,0,0,.24-.08.58-.2-1.22-1-1.27-2,.09-2.65s2.8-1.09,4.3-1.65c.22,1,1.21,1.47,2.52,1.1a2.07,2.07,0,0,1,2.05.49c2,1.55,4.21,2.77,7,1.93a37.89,37.89,0,0,1,5.45-1.2c1.11-.16,2.1-.27,2.66-1.41a2.68,2.68,0,0,1,.84-.85c.45-.34.95-.62,1.43-.93-.43-.43-.85-.88-1.29-1.29s-1.29-.78-1.3-1.2a26.26,26.26,0,0,1,.26-5.13c.19-1.18,0-2.27-1-2.68-2.1-.92-4.34-1.51-6.51-2.27-.34-.12-.83-.41-.87-.68-.13-.86,0-1.76-.13-2.62a5.08,5.08,0,0,0-.75-2.6c-.77-.82-1.3-1.68-.93-2.61.56-1.42,1.49-2.68,2.19-4.05a1.42,1.42,0,0,0,.12-.6,3.7,3.7,0,0,0,.34-1.74l.33-.39a11.2,11.2,0,0,0-1.16-1.23c-.33-.27-.84-.32-1.18-.58-2.1-1.67-3.15-4.12-4.7-6.21-1.8-2.43-.32-5.59-2.25-7.84a.19.19,0,0,1,0-.13c.25-1.64.78-3.28.13-4.95,0,0,0-.09,0-.13.34-1.08.69-2.16,1-3.25.07-.26-.09-.57-.11-.86a9.63,9.63,0,0,1-.11-1.78,27.55,27.55,0,0,0,.53-4.56,12.57,12.57,0,0,0-1.24-4,1.48,1.48,0,0,1,.59-2.06,12.16,12.16,0,0,1,3.1-1.85c2.08-.64,3.3-2.16,4.53-3.72a6.86,6.86,0,0,1,3.8-2.77,3.55,3.55,0,0,0,1.67-1.31,33,33,0,0,0,1.82-2.81l.36.16c-.31.85-.65,1.68-.91,2.54a32.76,32.76,0,0,0-1,4c-.06.36.47.89.84,1.21.14.12.73,0,.9-.21,1.12-1.32,2.15-2.71,3.27-4,.73-.86,1.49-1.65,2.85-1,.39.17,1-.18,1.52-.31a11.44,11.44,0,0,1,1.27-.39c1.82-.26,3.66-.44,5.48-.71,1.3-.19,2.62-.78,3.86-.63,1.65.2,2.28-.58,2.8-1.82s1-1.24,1.88-.35c.6.6,1.08,1.53,1.79,1.75,2.18.69,2.72,3,4.42,4.12.18.12.17.56.21.85a6.2,6.2,0,0,0,.11,1.2c.47,1.37,1,2.7,1.51,4.07a10.33,10.33,0,0,1,.93,3.19,7.09,7.09,0,0,0,1.25,3.72c.94,1.62,2.12,3.14,2.18,5.21a2,2,0,0,0,2.2,2.19c.29,0,.59.21.89.27,1,.19,1.09.76.66,1.55a4,4,0,0,0,.57,4.94,2.08,2.08,0,0,1,.41,2.57,7.05,7.05,0,0,0-.11,6.11c.5,1.29.69,2.87,2.16,3.56a1.78,1.78,0,0,0,1.27-.09c.28-.11.45-.51.67-.79a5.58,5.58,0,0,1,.86,1.06,9,9,0,0,1,.35,1.43c.44,1.57.82,3.16,1.39,4.68.45,1.22,1.16,2.34,1.71,3.53.22.48.25,1,.45,1.53a15.93,15.93,0,0,1,1.4,8.32c-.06.49.5,1,.72,1.6s.47,1,.32,1.27c-.51,1.12-1.2,2.17-1.8,3.25a5.41,5.41,0,0,0-.58,1.27,8.13,8.13,0,0,0,.52,4.77,1.09,1.09,0,0,1-.25.91c-1,1-2,2-3.06,3-1.74,1.69-1.74,1.69-.37,3.58,1.15,1.59,2.61,1.91,4,.51,1.73-1.67,3.62-1.18,5.39-.62a3.16,3.16,0,0,0,3.07-.14,2.1,2.1,0,0,1,2.82.81,2.69,2.69,0,0,0,3,1.28c1.46-.36,2.84-1,4.27-1.49a2.86,2.86,0,0,1,1.63-.27,4.93,4.93,0,0,0,4.7-.4c1.25-.86,3.59-.61,3.42-3.09,0-.16.34-.33.38-.53.09-.5.31-1.15.09-1.49a1.54,1.54,0,0,1,.33-2.23C342.05,319.82,342.05,319.18,342.1,318.67Zm-2.13,1c-1.42.79-1.45,1.76-1,3a6.63,6.63,0,0,0-.5,1.64,1.63,1.63,0,0,1-.62.92,18.6,18.6,0,0,1-2.86,1.36c-.36.13-.87-.13-1.31-.24-.65-.16-1.4-.64-1.94-.46a23,23,0,0,0-4.58,2,1.62,1.62,0,0,1-2.15-.21c-.65-.53-1.12-1.33-1.84-1.71s-1.8-.65-2.26-.32c-1.53,1.08-3,.42-4.35,0a3.6,3.6,0,0,0-3.27.28l-3.15,1.93c-.93-1.85-.11-3,1.13-4.05a7.07,7.07,0,0,0,2-2.55,5.52,5.52,0,0,0,0-2.9c-.4-1.92.43-3.41,1.45-4.85a5,5,0,0,0,.1-5.94,1.33,1.33,0,0,1-.29-.57c-.15-1.48-.26-3-.41-4.45a4.22,4.22,0,0,0-.21-.89c-.4-1.21-.89-2.4-1.19-3.64a7.9,7.9,0,0,0-1.78-3.82,4.1,4.1,0,0,1-.86-1.62c-.4-1.32-.63-2.69-1-4-.6-1.91-1-2.17-3.28-2.23l-.2,1-.46.08c-.19-.76-.37-1.52-.56-2.28a5.56,5.56,0,0,0-.26-1.14,5.27,5.27,0,0,1,.06-4.38,5.1,5.1,0,0,0,0-3.81c-1.13-1.88-1.4-3.43-.21-5.31a1.74,1.74,0,0,0-.4-1.67A7,7,0,0,0,301,268c-1-.11-1.44-.5-1.44-1.5,0-2.13-1.45-3.62-2.36-5.35a12.25,12.25,0,0,1-.83-2.29c-.12-.41,0-.88-.14-1.3-.33-1.43-.67-2.85-1.05-4.26a19,19,0,0,0-1.32-4.22,28.71,28.71,0,0,0-3.11-4,3.89,3.89,0,0,0-.71-.59c-1.67-1.25-3.34-2.51-5-3.75-.4-.3-.85-.73-1.28-.73-.26,0-.64.67-.77,1.1-.6,1.9-1.54,2.73-3.46,2.88-1.31.1-2.63.15-3.94.25a5.06,5.06,0,0,0-.87.29c-1.76.49-3.52,1-5.29,1.44-.14,0-.33-.1-.5-.17-1.86-.81-2.1-.64-3.3,1.12a15.22,15.22,0,0,1-2.39,2.27l-.34-.25.74-2.09c.67-1.88,1.41-3.74,2-5.65a9.43,9.43,0,0,0,0-2.52l-.54-.15a5.89,5.89,0,0,0-1.07,1c-1.13,1.88-2.27,3.76-3.28,5.7a4.91,4.91,0,0,1-3.34,3,2,2,0,0,0-.86.56,30.45,30.45,0,0,1-6.72,5.4,24,24,0,0,0-3,1.86c-2.08,1.56-2.08,4.89-.06,5.8a10.56,10.56,0,0,1,.32,2.57,36.73,36.73,0,0,1-1,5.09c-.44,1.66.74,3.47-.53,5,0,.06,0,.28.1.37.74.8.35,1.55-.05,2.34-.74,1.46-.53,2.28.72,3.36a1.52,1.52,0,0,1,.41.89c.18,1.24.27,2.5.45,3.75a12,12,0,0,0,4.23,7.27,20,20,0,0,0,3.61,2.31h0a3,3,0,0,1-.19,1.56.4.4,0,0,0-.28.13,27.28,27.28,0,0,0-2.68,4.76,3.93,3.93,0,0,0,1,4.05c.29.32.72.73.7,1.08-.05,1.23-.33,2.44-.4,3.67a2.91,2.91,0,0,0,.37,1.93c.31.34,1.2.18,1.83.19a13.07,13.07,0,0,1,2.43,0c1.08.23,2.09.82,3.17,1s1.43.61,1.29,1.79c-.18,1.58-.18,3.18-.27,5l-1.47.37-.08.33c.38.19.78.35,1.15.57s1.19.55,1.27.92a1.81,1.81,0,0,1-.75,1.39c-.44.32-1.4.63-1.63.41-.79-.75-1.36-.26-2,0-1.22.53-2.45,1-3.7,1.53a1.5,1.5,0,0,1-.9,0c-.87-.26-1.73-.54-2.57-.88s-1.47-.75-2.23-1.07c-1-.42-1.87-1.51-3.14-.42-.31.26-1,0-1.64,0l1.34-2.68c-.77.33-1.19.48-1.58.69a15.71,15.71,0,0,1-1.85,1.05c-1.41.52-2.87.9-4.3,1.4s-2.1.2-2.22-1.41a2.59,2.59,0,0,0-.19-.91c-.64-1.33-.24-2.18,1-3a20,20,0,0,0,3.45-3,2.71,2.71,0,0,0,.34-1.83,25.24,25.24,0,0,0-.5-3.21,1.89,1.89,0,0,0-.5-1.06c-.7-.56-.65-1-.1-1.65a4.55,4.55,0,0,0-.43-6.07c-1.2-1.24-2.45-2.48-2.26-4.49a2.54,2.54,0,0,0-.52-1.76,9,9,0,0,1-2-4.53,25.18,25.18,0,0,1-.77-7.71.35.35,0,0,0,.16-.46c0-.07,0-.14-.07-.21s0-.21,0-.31a2.71,2.71,0,0,0-.19-1.3.88.88,0,0,0-.31-.38,9.62,9.62,0,0,1-.06-1.68s0,0,0,0l.32-.45c-.5-.11-.59-.17-.66-.14-1.45.5-2.18,1.77-3.06,2.87a2.51,2.51,0,0,1-.66.55s-.36-.22-.35-.32a10.2,10.2,0,0,1,.52-2.8c.66-1.43,1.71-2.68,2.34-4.12.53-1.24,1.61-2.41,1-4a9.74,9.74,0,0,1-.53-1.62c-.42-2.39-.34-4.9-1.7-7.07a1.68,1.68,0,0,1-.13-.51c-.59-2.56-1-5.16-1.79-7.67-1-3.19-1.7-6.48-4-9.1a10,10,0,0,0-.95-1.05,6.07,6.07,0,0,0-1-2.19c-.43-1.51-.86-3-1.32-4.51-.33-1.08-.81-2.13-1.08-3.22a3.28,3.28,0,0,1,.13-1.7c.5-1.55.95-3.08.41-4.54a5.48,5.48,0,0,0-2.4-2.55,18.16,18.16,0,0,0-2.53-.72l2.11-5.64c.31-.84.74-.66,1.32-.23a4.54,4.54,0,0,0,1.81,1c2.43.36,4.88.57,7.4.84a5.31,5.31,0,0,1-.19-.54c-.12-.53-.51-1.27-.29-1.55a1.38,1.38,0,0,1,2-.35,2,2,0,0,0,1.34.16,3,3,0,0,1,3.17,1.28l-1.1.53c1.26.86,2.46,1.75,3.73,2.52a4.76,4.76,0,0,0,1.51.29l3.22.64c-1.15,1.23-1.27,2-.73,3.22a2.46,2.46,0,0,1-.5,3c-1.59,1.38-4.05,2.41-2.76,5.34.16.37,0,.89.09,1.3a7.67,7.67,0,0,0,.69,1.33,4.87,4.87,0,0,1,.59,1.13,7,7,0,0,1,.16,1.86,9.14,9.14,0,0,1-.37,3.28,14.51,14.51,0,0,0-1.23,6.42,5.24,5.24,0,0,0,.59,1.61l.44-.05a8.54,8.54,0,0,0,.39-1.88,9.66,9.66,0,0,1,2.18-6.62c1.16-1.38,2.36-2.73,3.49-4.14a2,2,0,0,0,.4-1.31,3.48,3.48,0,0,1,2.85-4.11,5.14,5.14,0,0,0,1.64-.56,4.78,4.78,0,0,1,4.29-.86c1.8.53,3.23-.47,4.72-.94s3-.61,4.25.4a2.29,2.29,0,0,0,3.05.26c1-.76,2-1.59,2.9-2.42.49-.43,1.14-.84,1.35-1.39a2.06,2.06,0,0,1,2-1.43c3-.12,5.94-.16,8.9-.24a4.58,4.58,0,0,0,.79-.11c1.39-.29,2.77-.64,4.18-.85a12.43,12.43,0,0,1,2.53,0,23.54,23.54,0,0,1,3.4.33c1.46.31,3.26-.72,4.29,1.13.3-.18.48-.3.67-.4,1.64-.86,1.83-.79,2.94.74a5.37,5.37,0,0,0,1,.9,15,15,0,0,1,2.68,2.27c1,1.4,2,2.64,4,2.24a.63.63,0,0,1,.51.1c.88,1.06,2,.78,3.19.34A6.56,6.56,0,0,1,311,234c-.21,2.22-.46,4.43-.65,6.65,0,.49,0,1.29.28,1.46,1.83,1.06,1.74,3.22,2.83,4.69.14.19.07.52.14.78.19.72.38,1.44.62,2.15.53,1.55,1.06,3.09,1.64,4.62a14.89,14.89,0,0,0,1.46,3.49,10.13,10.13,0,0,1,1.74,6.74c-.09,1.65-.36,3.29-.47,4.94a3.14,3.14,0,0,0,2.42,3.26,3.35,3.35,0,0,1,1,.51c2.1,1.57,3.77,3.28,3.7,6.27-.05,2.22-.05,4.56,1.12,6.64a.4.4,0,0,1,0,.26c-.68,2.87.45,5.57.76,8.34.14,1.25.79,2.45-.15,3.84a22.52,22.52,0,0,0-2,4.75c-.41,1.08.06,1.47,1.16,1.42a2.21,2.21,0,0,1,1.54.39,10.11,10.11,0,0,1,1.54,2.34c1.23,2.41,2.4,4.8,1.05,7.63-.27.56-.05,1.9.35,2.11a6.76,6.76,0,0,0,3.15.67c1.9,0,3.8-.28,6-.46C340.17,318.4,340.31,319.45,340,319.63Z" transform="translate(-21.97 -84.54)"/></svg>